<?xml version="1.0" encoding="UTF-8" standalone="no"?>
<!-- Created with Inkscape (http://www.inkscape.org/) -->

<svg
   width="763.4231mm"
   height="139.94376mm"
   viewBox="0 0 763.4231 139.94376"
   version="1.1"
   id="svg14248"
   inkscape:version="1.2 (56b05e47e7, 2022-06-09, custom)"
   sodipodi:docname="hapliv_sprites_dental"
   xmlns:inkscape="http://www.inkscape.org/namespaces/inkscape"
   xmlns:sodipodi="http://sodipodi.sourceforge.net/DTD/sodipodi-0.dtd"
   xmlns="http://www.w3.org/2000/svg"
   xmlns:svg="http://www.w3.org/2000/svg">
  <sodipodi:namedview
     id="namedview14250"
     pagecolor="#ffffff"
     bordercolor="#666666"
     borderopacity="1.0"
     inkscape:showpageshadow="2"
     inkscape:pageopacity="0.0"
     inkscape:pagecheckerboard="0"
     inkscape:deskcolor="#d1d1d1"
     inkscape:document-units="mm"
     showgrid="false"
     inkscape:zoom="0.37816708"
     inkscape:cx="682.23812"
     inkscape:cy="-181.13686"
     inkscape:window-width="1920"
     inkscape:window-height="1026"
     inkscape:window-x="0"
     inkscape:window-y="28"
     inkscape:window-maximized="1"
     inkscape:current-layer="layer1" />
  <defs
     id="defs14245" />
  <g
     inkscape:label="Layer 1"
     inkscape:groupmode="layer"
     id="layer1"
     transform="translate(553.19287,-24.96736)">
    <g
       id="g12567"
       transform="matrix(3.4717513,0,0,3.4717513,-652.17229,-96.485039)"
       style="stroke:#ffffff;stroke-width:0.406455;stroke-dasharray:none;stroke-opacity:1">
      <g
         id="g12565"
         transform="translate(0,-3.1928243)"
         style="stroke:#ffffff;stroke-width:0.406455;stroke-dasharray:none;stroke-opacity:1">
        <path
           style="fill:none;stroke:#ffffff;stroke-width:0.406455;stroke-linecap:butt;stroke-linejoin:miter;stroke-dasharray:none;stroke-opacity:1"
           d="m 37.36203,54.056459 c 0,0 -1.144597,0.08899 -1.531296,-2.692312 -0.386504,-2.779893 -0.553789,-2.89002 -0.938098,-4.324284 -0.250936,-0.936504 -0.148998,-2.401065 1.070099,-2.461255 1.219097,-0.06019 1.49629,0.444257 2.240953,0.677691 0.452985,0.141999 0.623248,0.245374 2.020516,-0.447173 1.397267,-0.692547 1.92078,0.576936 1.937643,0.639868 0.08823,0.329276 0.397946,1.471146 -0.355491,3.06809 -0.510857,1.082786 -0.625231,1.155868 -0.743775,1.582053 -0.348084,1.251418 0.02202,2.550263 -0.790566,3.815741 -0.441326,0.687319 -0.737538,-1.016447 -0.737538,-1.016447 0,0 -0.185197,-2.413442 -1.255699,-2.496349 -0.650643,-0.05039 -0.524264,3.27915 -0.916748,3.654377 z"
           id="path12557"
           sodipodi:nodetypes="cssssssssscsc" />
        <path
           style="fill:none;stroke:#ffffff;stroke-width:0.406455;stroke-linecap:butt;stroke-linejoin:miter;stroke-dasharray:none;stroke-opacity:1"
           d="m 35.709002,46.716277 c 0,0 -0.434533,-1.766406 1.089967,-1.122963"
           id="path12559" />
        <path
           style="fill:none;stroke:#ffffff;stroke-width:0.406455;stroke-linecap:butt;stroke-linejoin:miter;stroke-dasharray:none;stroke-opacity:1"
           d="m 37.36203,54.056459 c 0,0 -1.144597,0.08899 -1.531296,-2.692312 -0.386504,-2.779893 -0.553789,-2.89002 -0.938098,-4.324284 -0.250936,-0.936504 -0.148998,-2.401065 1.070099,-2.461255 1.219097,-0.06019 1.49629,0.444257 2.240953,0.677691 0.452985,0.141999 0.623248,0.245374 2.020516,-0.447173 1.397267,-0.692547 1.92078,0.576936 1.937643,0.639868 0.08823,0.329276 0.397946,1.471146 -0.355491,3.06809 -0.510857,1.082786 -0.625231,1.155868 -0.743775,1.582053 -0.348084,1.251418 0.02202,2.550263 -0.790566,3.815741 -0.441326,0.687319 -0.737538,-1.016447 -0.737538,-1.016447 0,0 -0.185197,-2.413442 -1.255699,-2.496349 -0.650643,-0.05039 -0.524264,3.27915 -0.916748,3.654377 z"
           id="path12561"
           sodipodi:nodetypes="cssssssssscsc" />
        <path
           style="fill:none;stroke:#ffffff;stroke-width:0.406455;stroke-linecap:butt;stroke-linejoin:miter;stroke-dasharray:none;stroke-opacity:1"
           d="m 37.36203,54.056459 c 0,0 -1.144597,0.08899 -1.531296,-2.692312 -0.386504,-2.779893 -0.553789,-2.89002 -0.938098,-4.324284 -0.250936,-0.936504 -0.148998,-2.401065 1.070099,-2.461255 1.219097,-0.06019 1.49629,0.444257 2.240953,0.677691 0.452985,0.141999 0.623248,0.245374 2.020516,-0.447173 1.397267,-0.692547 1.92078,0.576936 1.937643,0.639868 0.08823,0.329276 0.397946,1.471146 -0.355491,3.06809 -0.510857,1.082786 -0.625231,1.155868 -0.743775,1.582053 -0.348084,1.251418 0.02202,2.550263 -0.790566,3.815741 -0.441326,0.687319 -0.737538,-1.016447 -0.737538,-1.016447 0,0 -0.185197,-2.413442 -1.255699,-2.496349 -0.650643,-0.05039 -0.524264,3.27915 -0.916748,3.654377 z"
           id="path12563"
           sodipodi:nodetypes="cssssssssscsc" />
      </g>
    </g>
    <g
       id="g12583"
       transform="matrix(3.4717513,0,0,3.4717513,-585.19688,-158.20723)"
       style="stroke:#ffffff;stroke-width:0.406455;stroke-dasharray:none;stroke-opacity:1">
      <rect
         style="fill:none;stroke:#ffffff;stroke-width:0.406455;stroke-dasharray:none;stroke-opacity:1"
         id="rect12569"
         width="5.9345641"
         height="1.4413236"
         x="35.51749"
         y="63.441845"
         ry="0.16668133"
         transform="rotate(-0.02982728)"
         rx="0.16668133" />
      <path
         style="fill:none;stroke:#ffffff;stroke-width:0.406455;stroke-linecap:butt;stroke-linejoin:miter;stroke-dasharray:none;stroke-opacity:1"
         d="m 37.065429,64.807767 0.461049,3.78761 0.974079,1.409511 1.101047,-1.414157 0.388085,-3.660472 z"
         id="path12571" />
      <path
         style="fill:none;stroke:#ffffff;stroke-width:0.406455;stroke-linecap:butt;stroke-linejoin:miter;stroke-dasharray:none;stroke-opacity:1"
         d="m 36.576266,65.593738 c 3.816821,0.06926 3.925579,0.06926 3.925579,0.06926"
         id="path12573" />
      <path
         style="fill:none;stroke:#ffffff;stroke-width:0.406455;stroke-linecap:butt;stroke-linejoin:miter;stroke-dasharray:none;stroke-opacity:1"
         d="m 36.74035,66.745904 3.510911,0.08164"
         id="path12575" />
      <path
         style="fill:none;stroke:#ffffff;stroke-width:0.406455;stroke-linecap:butt;stroke-linejoin:miter;stroke-dasharray:none;stroke-opacity:1"
         d="m 36.777841,67.956586 3.510911,0.08164"
         id="path12577" />
      <path
         style="fill:none;stroke:#ffffff;stroke-width:0.406455;stroke-linecap:butt;stroke-linejoin:miter;stroke-dasharray:none;stroke-opacity:1"
         d="m 35.496871,63.403432 c -1.002045,-0.05092 -1.096955,-4.024406 0.164709,-4.08538 1.261666,-0.06097 1.820223,0.464803 2.590888,0.701274 0.468802,0.143846 0.645011,0.248564 2.091068,-0.45299 1.446055,-0.701553 1.987848,0.58444 2.0053,0.64819 0.09131,0.333559 0.06001,1.491265 -0.719742,3.10898 -3.153563,0.127588 -3.21321,0.168083 -6.132223,0.07992 z"
         id="path12579"
         sodipodi:nodetypes="csssscc" />
      <path
         style="fill:#000000;fill-opacity:0;stroke:#ffffff;stroke-width:0.406455;stroke-linecap:butt;stroke-linejoin:miter;stroke-dasharray:none;stroke-opacity:1"
         d="m 35.670673,61.545545 c 0,0 -0.449705,-1.828084 1.128027,-1.162174"
         id="path12581" />
    </g>
    <g
       id="g12589"
       transform="matrix(3.4717513,0,0,3.4717513,-98.440632,-223.94398)"
       style="stroke:#ffffff;stroke-width:0.406455;stroke-dasharray:none;stroke-opacity:1">
      <path
         style="fill:none;stroke:#ffffff;stroke-width:0.406455;stroke-linecap:butt;stroke-linejoin:miter;stroke-dasharray:none;stroke-opacity:1"
         d="m 35.656954,83.825133 c 0,0 1.298873,-0.632624 1.298873,0.378528 0,0.964163 -0.835541,1.360038 -0.835541,1.360038 0,0 -1.224413,-0.315184 -1.124299,-1.437793 0.100115,-1.122611 -1.078734,-1.076766 -1.383278,-0.665572 -0.693204,0.93596 0.746488,3.720893 1.415471,4.487564 0.850779,0.975014 7.441522,3.658059 7.706642,-3.192363 0.07898,-2.040718 -1.481433,-1.309939 -1.481433,-1.309939"
         id="path12585"
         sodipodi:nodetypes="cscssssc" />
      <path
         style="fill:none;stroke:#ffffff;stroke-width:0.406455;stroke-linecap:butt;stroke-linejoin:miter;stroke-dasharray:none;stroke-opacity:1"
         d="m 37.36203,87.923147 c 0,0 -1.144597,0.08899 -1.531296,-2.692312 -0.386504,-2.779893 -0.553789,-2.89002 -0.938098,-4.324284 -0.250936,-0.936504 -0.148998,-2.401065 1.070099,-2.461255 1.219097,-0.06019 1.49629,0.444257 2.240953,0.677691 0.452985,0.141999 0.623248,0.245374 2.020516,-0.447173 1.397267,-0.692547 1.92078,0.576936 1.937643,0.639868 0.08823,0.329276 0.397946,1.471146 -0.355491,3.06809 -0.510857,1.082786 -0.625231,1.155868 -0.743775,1.582053 -0.348084,1.251418 0.02202,2.550263 -0.790566,3.815741 -0.441326,0.687319 -0.737538,-1.016447 -0.737538,-1.016447 0,0 -0.185197,-2.413442 -1.255699,-2.496349 -0.650643,-0.05039 -0.524264,3.27915 -0.916748,3.654377 z"
         id="path12587"
         sodipodi:nodetypes="cssssssssscsc" />
    </g>
    <g
       id="g12605"
       transform="matrix(3.4717513,0,0,3.4717513,-604.76954,-97.869637)"
       style="stroke:#ffffff;stroke-width:0.406455;stroke-dasharray:none;stroke-opacity:1">
      <path
         d="M 50.832983,63.201104"
         style="fill:none;stroke:#ffffff;stroke-width:0.406455;stroke-linecap:butt;stroke-linejoin:miter;stroke-dasharray:none;stroke-opacity:1"
         id="path12591" />
      <path
         style="fill:none;stroke:#ffffff;stroke-width:0.406455;stroke-linecap:butt;stroke-linejoin:miter;stroke-dasharray:none;stroke-opacity:1"
         d="m 58.323484,59.721262 c -1.131369,0.01948 -2.335387,1.77772 -2.388505,3.616193 1.32832,-0.330919 2.00256,0.614774 2.322491,1.772088 l 2.04986,0.03686 c 0,-4.041523 -0.961964,-5.44274 -1.983846,-5.425145 z"
         id="path12593" />
      <path
         style="fill:none;stroke:#ffffff;stroke-width:0.406455;stroke-linecap:butt;stroke-linejoin:miter;stroke-dasharray:none;stroke-opacity:1"
         d="m 53.843966,59.977601 c -0.01875,3.24e-4 -0.03752,8.12e-4 -0.05658,0.0017 -1.305663,0.06185 -2.18387,4.452718 -1.664923,4.568679 0.999549,0.176366 1.79648,0.169058 2.625984,0.100305 0.278242,-0.642296 0.638167,-1.14825 1.045077,-1.273126 0.03905,-0.01194 0.0769,-0.02183 0.114881,-0.03172 -0.01414,-1.365407 -0.479625,-3.393185 -2.064436,-3.365854 z"
         id="path12595" />
      <path
         style="fill:none;stroke:#ffffff;stroke-width:0.406455;stroke-linecap:butt;stroke-linejoin:miter;stroke-dasharray:none;stroke-opacity:1"
         d="m 60.592336,65.108626 4.314015,0.06777 c 0,-9.246719 -6.240742,-3.621976 -4.314015,-0.06777 z"
         id="path12597" />
      <path
         style="fill:none;stroke:#ffffff;stroke-width:0.406455;stroke-linecap:butt;stroke-linejoin:miter;stroke-dasharray:none;stroke-opacity:1"
         d="m 65.007158,64.560209 3.365081,0.06034 c 0,-8.232311 -4.867993,-3.224623 -3.365081,-0.06034 z"
         id="path12599" />
      <path
         style="fill:none;stroke:#ffffff;stroke-width:0.406455;stroke-linecap:butt;stroke-linejoin:miter;stroke-dasharray:none;stroke-opacity:1"
         d="m 55.119091,67.376316 c -0.55424,0.144219 -1.852092,0.838719 -1.852092,0.838719 l -0.06507,5.272161 0.958218,0.0058 0.04174,-4.722477 c 0,0 1.723725,-1.604058 0.917212,-1.394201 z"
         id="path12601" />
      <path
         style="fill:none;stroke:#ffffff;stroke-width:0.406455;stroke-linecap:butt;stroke-linejoin:miter;stroke-dasharray:none;stroke-opacity:1"
         d="m 54.739062,64.739981 c 0,0 -0.702662,3.001234 -0.190569,2.810662 0.301157,-0.112067 0.845992,-0.338671 0.994042,-0.284897 0.264223,0.09597 -0.721425,1.033536 -0.721425,1.033536 0,0 1.475511,0.15049 3.249298,-0.101233 0.460489,-0.06535 0.21176,-2.894866 0.21176,-2.894866"
         id="path12603" />
    </g>
    <g
       id="g12627"
       transform="matrix(3.4717513,0,0,3.4717513,-486.56446,-70.293724)"
       style="stroke:#ffffff;stroke-width:0.406455;stroke-dasharray:none;stroke-opacity:1">
      <g
         id="g12623"
         style="stroke:#ffffff;stroke-width:0.406455;stroke-dasharray:none;stroke-opacity:1">
        <path
           style="fill:none;stroke:#ffffff;stroke-width:0.406455;stroke-linecap:butt;stroke-linejoin:miter;stroke-miterlimit:3.1;stroke-dasharray:none;stroke-opacity:1"
           d="m 80.842989,63.898595 -2.284467,-0.07785 c 0,0 -0.0092,-2.808684 0.946653,-3.069681 0.490592,-0.133932 1.475656,0.103781 1.337814,3.147537 z"
           id="path12607"
           sodipodi:nodetypes="ccsc" />
        <path
           style="fill:none;stroke:#ffffff;stroke-width:0.406455;stroke-linecap:butt;stroke-linejoin:miter;stroke-miterlimit:3.1;stroke-dasharray:none;stroke-opacity:1"
           d="m 83.097016,64.068122 -2.284467,-0.07785 c 0,0 -0.0092,-2.808683 0.946653,-3.069683 0.490591,-0.133932 1.475656,0.103781 1.337814,3.147538 z"
           id="path12609"
           sodipodi:nodetypes="ccsc" />
        <path
           style="fill:none;stroke:#ffffff;stroke-width:0.406455;stroke-linecap:butt;stroke-linejoin:miter;stroke-miterlimit:3.1;stroke-dasharray:none;stroke-opacity:1"
           d="m 85.787157,64.426484 -2.614552,-0.08155 c 0,0 -0.01065,-2.941979 1.083438,-3.215362 0.561477,-0.140304 1.688877,0.108705 1.531114,3.296909 z"
           id="path12611"
           sodipodi:nodetypes="ccsc" />
        <path
           style="fill:none;stroke:#ffffff;stroke-width:0.406455;stroke-linecap:butt;stroke-linejoin:miter;stroke-miterlimit:3.1;stroke-dasharray:none;stroke-opacity:1"
           d="m 88.654554,64.497239 -2.667374,-0.0832 c 0,0 -0.01085,-3.001414 1.105328,-3.280325 0.572823,-0.143138 1.723002,0.110896 1.562046,3.363523 z"
           id="path12613"
           sodipodi:nodetypes="ccsc" />
        <path
           style="fill:none;stroke:#ffffff;stroke-width:0.406455;stroke-linecap:butt;stroke-linejoin:miter;stroke-miterlimit:3.1;stroke-dasharray:none;stroke-opacity:1"
           d="m 91.302127,64.246217 -2.5298,-0.0789 c 0,0 -0.01025,-2.846607 1.048321,-3.111133 0.543274,-0.135741 1.634133,0.105188 1.481479,3.190037 z"
           id="path12615"
           sodipodi:nodetypes="ccsc" />
        <path
           style="fill:none;stroke:#ffffff;stroke-width:0.406455;stroke-linecap:butt;stroke-linejoin:miter;stroke-miterlimit:3.1;stroke-dasharray:none;stroke-opacity:1"
           d="m 93.592884,63.806913 -2.187571,-0.06822 c 0,0 -0.0088,-2.461518 0.906502,-2.690259 0.469787,-0.117389 1.413069,0.09096 1.281069,2.758489 z"
           id="path12617"
           sodipodi:nodetypes="ccsc" />
        <path
           style="fill:none;stroke:#ffffff;stroke-width:0.406455;stroke-linecap:butt;stroke-linejoin:miter;stroke-dasharray:none;stroke-opacity:1"
           d="m 78.797818,61.955202 c 0,0 -0.182563,1.102144 -2.048028,-0.115815 -1.93323,-1.262203 -1.024537,-4.591308 0.764844,-4.15588 6.508049,1.58367 10.721195,1.848301 16.543426,0.06527 2.657656,-0.813892 2.407242,2.656962 0.926969,4.148552 -1.098926,1.107329 -1.45084,0.389068 -1.45084,0.389068"
           id="path12619"
           sodipodi:nodetypes="cssssc" />
        <path
           style="fill:none;stroke:#ffffff;stroke-width:0.406455;stroke-linecap:butt;stroke-linejoin:miter;stroke-dasharray:none;stroke-opacity:1"
           d="m 90.807588,58.39717 -0.4869,-7.064093 7.579805,-0.142089 -0.566561,12.617554 -5.735858,-0.198285"
           id="path12621"
           sodipodi:nodetypes="ccccc" />
      </g>
      <path
         style="fill:none;stroke:#ffffff;stroke-width:0.406455;stroke-linecap:butt;stroke-linejoin:miter;stroke-dasharray:none;stroke-opacity:1"
         d="m 90.740126,54.577389 7.058382,0.124377"
         id="path12625" />
    </g>
    <g
       id="g13913"
       style="stroke-width:0.406455;stroke-dasharray:none"
       transform="matrix(3.4717513,0,0,3.4717513,-553.08549,-114.96122)">
      <g
         id="g12631"
         transform="translate(11.15316,2.7251538)"
         style="stroke:#ffffff;stroke-width:0.406455;stroke-dasharray:none;stroke-opacity:1">
        <path
           style="fill:none;stroke:#ffffff;stroke-width:0.406455;stroke-linecap:butt;stroke-linejoin:miter;stroke-dasharray:none;stroke-opacity:1"
           d="m 40.8287,45.409431 c 1.15875,-0.612596 1.354846,2.430638 0.243647,4.347539 -0.592042,1.021316 0.08498,4.183784 -0.617948,4.022761 -1.267898,-0.0186 -0.939355,-3.180077 -2.175621,-3.377649 -0.650643,-0.05039 -0.524264,3.27915 -0.916748,3.654377 0,0 -1.144597,0.08899 -1.531296,-2.692312 -0.386504,-2.779893 -0.553789,-2.89002 -0.938098,-4.324284 -0.250936,-0.936504 -0.148998,-2.401065 1.070099,-2.461255 1.219097,-0.06019 1.49629,0.444257 2.240953,0.677691"
           id="path12629"
           sodipodi:nodetypes="cscccsssc" />
      </g>
      <path
         style="fill:none;stroke:#ffffff;stroke-width:0.406455;stroke-linecap:butt;stroke-linejoin:miter;stroke-dasharray:none;stroke-opacity:1"
         d="m 52.361423,44.454402 -3.624638,4.383108 1.065189,-0.09683 -1.534178,2.768163 4.438136,-4.041127 -1.72955,0.103274 z"
         id="path12633"
         sodipodi:nodetypes="ccccccc" />
      <ellipse
         style="fill:#ffffff;fill-opacity:1;stroke:none;stroke-width:0.406455;stroke-dasharray:none;stroke-opacity:1"
         id="ellipse12635"
         cx="47.060562"
         cy="48.462875"
         rx="0.63471222"
         ry="0.63470328" />
      <ellipse
         style="fill:#ffffff;fill-opacity:1;stroke:none;stroke-width:0.406455;stroke-miterlimit:3.1;stroke-dasharray:none;stroke-opacity:1"
         id="ellipse12637"
         cx="47.869919"
         cy="49.252262"
         rx="0.312123"
         ry="0.38375643" />
    </g>
    <g
       id="g12663"
       transform="matrix(2.0992465,0,0,2.1020451,-488.73266,-367.58852)"
       style="stroke:#ffffff;stroke-width:0.671751;stroke-dasharray:none;stroke-opacity:1">
      <path
         style="fill:none;stroke:#ffffff;stroke-width:0.671751;stroke-linecap:butt;stroke-linejoin:miter;stroke-dasharray:none;stroke-opacity:1"
         d="m 236.3736,229.81581 c 0,0 -0.31409,-0.32351 -0.83719,-1.82471 -0.36576,-1.04966 0.3463,-2.66551 2.23443,-0.9768 1.45338,1.29988 0.56591,2.67045 0.56591,2.67045 0,0 -0.97953,1.57101 -1.96315,0.13106 z"
         id="path12641"
         sodipodi:nodetypes="csscc" />
      <path
         style="fill:none;stroke:#ffffff;stroke-width:0.671751;stroke-linecap:butt;stroke-linejoin:miter;stroke-dasharray:none;stroke-opacity:1"
         d="m 238.37055,233.48387 4.40159,4.68939 c 0.55184,0.58793 1.82377,-0.56237 1.36149,-1.18224 -1.35123,-1.8118 -3.87805,-4.53879 -4.4428,-4.98456 -0.6046,-0.47722 -1.90556,0.008 -1.32028,1.47741 z"
         id="path12643"
         sodipodi:nodetypes="csssc" />
      <path
         style="fill:none;stroke:#ffffff;stroke-width:0.671751;stroke-linecap:butt;stroke-linejoin:miter;stroke-dasharray:none;stroke-opacity:1"
         d="m 237.77177,229.9847 c 0.32424,0.81291 0.691,1.76432 0.74619,1.84025"
         id="path12645"
         sodipodi:nodetypes="cc" />
      <path
         style="fill:none;stroke:#ffffff;stroke-width:0.671751;stroke-linecap:butt;stroke-linejoin:miter;stroke-dasharray:none;stroke-opacity:1"
         d="m 245.39893,239.58558 6.50095,0.0493 c 0.80628,0.006 0.75727,-1.72203 -0.0124,-1.78394 -2.24963,-0.18094 -6.06908,-0.2275 -6.77878,-0.12948 -0.75978,0.10495 -1.19109,1.40402 0.29021,1.8642 z"
         id="path12647"
         sodipodi:nodetypes="csssc" />
      <path
         style="fill:none;stroke:#ffffff;stroke-width:0.671751;stroke-linecap:butt;stroke-linejoin:miter;stroke-dasharray:none;stroke-opacity:1"
         d="m 253.25622,240.40563 5.28566,3.78505 c 0.65562,0.46934 1.61095,-0.97143 1.01747,-1.46539 -1.73469,-1.44376 -4.82999,-3.68194 -5.46658,-4.01062 -0.68152,-0.35187 -1.78239,0.46158 -0.83661,1.69102 z"
         id="path12649"
         sodipodi:nodetypes="csssc" />
      <path
         style="fill:none;stroke:#ffffff;stroke-width:0.671751;stroke-linecap:butt;stroke-linejoin:miter;stroke-dasharray:none;stroke-opacity:1"
         d="m 245.00854,239.61418 0.99128,3.77204 2.95453,-0.008 3.11312,-3.63198 c -1.96276,-0.0596 -4.55506,-0.0941 -7.05893,-0.13206 z"
         id="path12651"
         sodipodi:nodetypes="ccccc" />
      <path
         style="fill:none;stroke:#ffffff;stroke-width:0.671751;stroke-linecap:butt;stroke-linejoin:miter;stroke-dasharray:none;stroke-opacity:1"
         d="m 246.19963,243.6616 2.15226,3.29344 -3.58926,1.6197 -0.0254,2.10764 -5.0785,0.1557 13.64264,-0.21577 0.17567,-5.03565 -2.64895,0.97535 -2.14143,-3.1083 z"
         id="path12653"
         sodipodi:nodetypes="cccccccccc" />
      <circle
         style="fill:none;stroke:#ffffff;stroke-width:0.671751;stroke-miterlimit:3.1;stroke-dasharray:none;stroke-opacity:1"
         id="circle12655"
         cx="261.73633"
         cy="224.55878"
         r="2.5783575" />
      <path
         style="fill:none;stroke:#ffffff;stroke-width:0.671751;stroke-linecap:butt;stroke-linejoin:miter;stroke-dasharray:none;stroke-opacity:1"
         d="m 259.41852,224.64074 -9.43423,-0.0299 0.029,6.05926 16.16148,0.0551 -0.21065,2.87552 -10.35597,-0.0546 3.94685,-2.79315 -9.56299,-0.0698 -0.02,2.64162 -4.82392,0.0559 0.039,3.20008"
         id="path12657"
         sodipodi:nodetypes="ccccccccccc" />
      <path
         style="fill:none;stroke:#ffffff;stroke-width:0.671751;stroke-linecap:butt;stroke-linejoin:miter;stroke-dasharray:none;stroke-opacity:1"
         d="m 249.98155,233.30448 3.25875,0.078 -0.0899,3.50071"
         id="path12659" />
      <path
         style="fill:none;stroke:#ffffff;stroke-width:0.671751;stroke-linecap:butt;stroke-linejoin:miter;stroke-dasharray:none;stroke-opacity:1"
         d="m 263.65952,222.83995 2.60287,-0.0974 -0.0391,3.09209 -2.22536,0.0677"
         id="path12661"
         sodipodi:nodetypes="cccc" />
    </g>
    <g
       id="g13919"
       style="stroke-width:0.406455;stroke-dasharray:none"
       transform="matrix(3.4717513,0,0,3.4717513,-553.08549,-114.96122)">
      <path
         style="fill:none;stroke:#ffffff;stroke-width:0.406455;stroke-linecap:butt;stroke-linejoin:miter;stroke-dasharray:none;stroke-opacity:1"
         d="m 66.657229,49.7556 c -1.00204,-0.05202 -0.89197,-4.050652 0.36969,-4.112944 1.26167,-0.06229 1.82023,0.474857 2.59089,0.716442 0.4688,0.146958 0.64501,0.253941 2.09107,-0.462788 1.44605,-0.716728 1.98785,0.597082 2.0053,0.662211 0.0913,0.340773 0.17469,1.53807 -0.60505,3.190777 -0.69629,0.02878 -0.23774,-1.128246 -0.93409,-1.155557 -1.06969,-0.04195 -4.01458,-0.04305 -4.69265,-0.04663 -0.61951,-0.0033 0.011,1.166524 -0.81341,1.204361 z"
         id="path12665"
         sodipodi:nodetypes="csssscsscc" />
      <path
         id="path12667"
         style="fill:none;stroke:#ffffff;stroke-width:0.406455;stroke-linecap:butt;stroke-linejoin:miter;stroke-dasharray:none;stroke-opacity:1"
         d="m 72.996409,52.084368 c -0.76041,-9.5e-4 -1.42684,-0.0013 -2.36006,-0.0031 -1.06712,-0.002 -2.44524,-0.0054 -3.76308,-0.0088 0.11506,0.517834 0.2365,1.206332 0.39533,2.348694 0.38669,2.781299 1.53168,2.692342 1.53168,2.692342 0.39249,-0.375226 0.2661,-3.704947 0.91674,-3.654557 1.0705,0.08291 1.25574,2.496488 1.25574,2.496488 0,0 0.2961,1.703794 0.73742,1.016476 0.81259,-1.265477 0.44257,-2.564371 0.79065,-3.815788 0.0959,-0.344873 0.19281,-0.467199 0.49558,-1.071769 z" />
      <rect
         style="fill:none;stroke:#ffffff;stroke-width:0.406455;stroke-miterlimit:3.1;stroke-dasharray:none;stroke-opacity:1"
         id="rect12669"
         width="4.8709331"
         height="0.85773724"
         x="67.470963"
         y="51.190609" />
      <g
         id="use12671"
         style="fill:#ffffff;stroke:#ffffff;stroke-width:18.0447;stroke-dasharray:none;stroke-opacity:1"
         transform="matrix(0.02220471,0,0,0.02284968,69.021049,49.006397)">
        <title
           id="title15062">Down Arrow</title>
        <path
           d="M 36,63 14,41 V 26 L 30,42 V 10 H 42 V 42 L 58,26 v 15 z"
           style="stroke:none;stroke-width:18.0447;stroke-dasharray:none"
           id="path15064" />
      </g>
    </g>
    <g
       id="g12693"
       transform="matrix(1.7991402,0,0,1.7892632,-417.68455,-61.289513)"
       style="stroke:#ffffff;stroke-width:0.786487;stroke-dasharray:none;stroke-opacity:1">
      <path
         style="fill:none;stroke:#ffffff;stroke-width:0.786487;stroke-linecap:butt;stroke-linejoin:miter;stroke-miterlimit:3.1;stroke-dasharray:none;stroke-opacity:1"
         d="m 57.599562,113.1835 -8.758034,-0.30315 c 0,0 -0.03527,-10.93735 3.629214,-11.95371 1.880794,-0.52155 5.65727,0.40413 5.12882,12.25688 z"
         id="path12675"
         sodipodi:nodetypes="ccsc" />
      <path
         style="fill:none;stroke:#ffffff;stroke-width:0.786487;stroke-linecap:butt;stroke-linejoin:miter;stroke-miterlimit:3.1;stroke-dasharray:none;stroke-opacity:1"
         d="M 67.912842,114.57901 57.88935,114.26144 c 0,0 -0.04083,-11.45641 4.153611,-12.521 2.152553,-0.54636 6.474702,0.42331 5.869881,12.83856 z"
         id="path12677"
         sodipodi:nodetypes="ccsc" />
      <path
         style="fill:none;stroke:#ffffff;stroke-width:0.786487;stroke-linecap:butt;stroke-linejoin:miter;stroke-miterlimit:3.1;stroke-dasharray:none;stroke-opacity:1"
         d="m 78.497037,114.8313 -10.225998,-0.32399 c 0,0 -0.0416,-11.68787 4.237532,-12.77398 2.19605,-0.5574 6.605528,0.43184 5.988466,13.09796 z"
         id="path12679"
         sodipodi:nodetypes="ccsc" />
      <path
         style="fill:none;stroke:#ffffff;stroke-width:0.786487;stroke-linecap:butt;stroke-linejoin:miter;stroke-miterlimit:3.1;stroke-dasharray:none;stroke-opacity:1"
         d="m 88.219142,114.20426 -9.698575,-0.30725 c 0,0 -0.0393,-11.08503 4.018981,-12.11512 2.082767,-0.52859 6.264828,0.40961 5.679594,12.42238 z"
         id="path12681"
         sodipodi:nodetypes="ccsc" />
      <rect
         style="fill:none;stroke:#ffffff;stroke-width:0.786487;stroke-miterlimit:3.1;stroke-dasharray:none;stroke-opacity:1"
         id="rect12683"
         width="2.1044092"
         height="2.1370456"
         x="52.093098"
         y="106.13148" />
      <rect
         style="fill:none;stroke:#ffffff;stroke-width:0.786487;stroke-miterlimit:3.1;stroke-dasharray:none;stroke-opacity:1"
         id="rect12685"
         width="2.1044092"
         height="2.1370456"
         x="61.759384"
         y="107.31057" />
      <rect
         style="fill:none;stroke:#ffffff;stroke-width:0.786487;stroke-miterlimit:3.1;stroke-dasharray:none;stroke-opacity:1"
         id="rect12687"
         width="2.1044092"
         height="2.1370456"
         x="72.436722"
         y="107.57468" />
      <path
         style="fill:none;stroke:#ffffff;stroke-width:0.786487;stroke-miterlimit:3.1;stroke-dasharray:none;stroke-opacity:1"
         d="m 82.307578,106.80798 h 2.104408 v 2.13704 h -2.104408 z"
         id="path12689" />
      <path
         style="fill:none;stroke:#ffffff;stroke-width:0.786487;stroke-linecap:butt;stroke-linejoin:miter;stroke-dasharray:none;stroke-opacity:1"
         d="m 47.947908,106.32675 c 0,0 19.432463,4.02849 36.003471,1.53319 2.114978,-0.31847 4.183345,-0.74323 6.158748,-1.29619"
         id="path12691"
         sodipodi:nodetypes="csc" />
    </g>
    <g
       id="g12719"
       transform="matrix(3.4717513,0,0,3.4717513,-131.1579,-228.8331)"
       style="stroke:#ffffff;stroke-width:0.406455;stroke-dasharray:none;stroke-opacity:1">
      <path
         style="fill:none;stroke:#ffffff;stroke-width:0.406455;stroke-linecap:butt;stroke-linejoin:miter;stroke-dasharray:none;stroke-opacity:1"
         d="m 85.637398,83.739042 c 0,0 -1.00321,-0.291013 -0.48717,-2.72683 0.3835,-1.810226 1.47987,-1.471651 2.53972,-1.993011 1.67833,-0.825604 3.56734,-1.843375 5.3467,0.820616 1.23586,1.850288 0.0985,3.602814 0.0985,3.602814 0,0 -0.35841,-2.845999 -1.22912,-2.779709 -0.41786,0.03181 0.83813,1.567592 -0.0686,1.57951 -0.26873,0.0035 -3.46657,-2.045996 -4.08843,-1.730272 -0.3921,0.199074 0.99547,1.286555 0.61432,1.088271 -2.71861,-1.414269 -2.72598,2.138611 -2.72598,2.138611 z"
         id="path12695"
         sodipodi:nodetypes="cssscsssscc" />
      <path
         style="fill:none;stroke:#ffffff;stroke-width:0.406455;stroke-linecap:butt;stroke-linejoin:miter;stroke-dasharray:none;stroke-opacity:1"
         d="m 85.611798,83.524673 c 0,0 -0.20215,0.962596 -0.0224,1.389561 0.0806,0.191533 0.45281,0.428513 0.45281,0.428513 0,0 0.22395,-0.748226 0.54482,-0.843137 0.22796,-0.06743 0.53476,0.08449 0.65063,0.292062 0.071,0.127125 -0.16877,0.339876 -0.0569,0.433044 0.10935,0.09106 0.28562,-0.206829 0.40621,-0.131289 0.27134,0.169965 0.12167,0.631298 0.13307,0.951268 0.0112,0.3155 0.0211,0.64916 0.13151,0.94492 0.12401,0.33213 0.25868,0.55847 0.5542,0.75432 0.33783,0.22389 0.72305,0.46579 1.12814,0.4534 0.59965,-0.0183 1.23362,-0.31801 1.62581,-0.772 0.38746,-0.44852 0.37174,-0.87042 0.72116,-1.34916 0.18893,-0.25885 0.17566,-0.44114 0.43515,-0.62919 0.18636,-0.135042 0.64517,-0.288106 0.82146,-0.700798 0.48283,-1.130237 -0.0539,-1.203716 -0.0539,-1.203716"
         id="path12697"
         sodipodi:nodetypes="cscssssssssssssc" />
      <path
         style="fill:none;stroke:#ffffff;stroke-width:0.406455;stroke-linecap:butt;stroke-linejoin:miter;stroke-dasharray:none;stroke-opacity:1"
         d="m 87.347238,83.133171 c 0.60812,-0.189487 0.81098,-0.465303 1.015,-0.740872"
         id="path12699"
         sodipodi:nodetypes="cc" />
      <path
         style="fill:none;stroke:#ffffff;stroke-width:0.406455;stroke-linecap:butt;stroke-linejoin:miter;stroke-dasharray:none;stroke-opacity:1"
         d="m 90.372218,82.454049 c 0.26443,0.291585 0.57658,0.514356 0.92344,0.687103"
         id="path12701"
         sodipodi:nodetypes="cc" />
      <path
         style="fill:none;stroke:#ffffff;stroke-width:0.406455;stroke-linecap:butt;stroke-linejoin:miter;stroke-dasharray:none;stroke-opacity:1"
         d="m 87.371898,84.159603 c 0,0 0.33075,-0.69832 1.22403,-0.568676"
         id="path12703" />
      <path
         style="fill:none;stroke:#ffffff;stroke-width:0.406455;stroke-linecap:butt;stroke-linejoin:miter;stroke-dasharray:none;stroke-opacity:1"
         d="m 89.959088,83.692194 c 0.48232,0.100891 0.52529,-0.307549 1.45016,0.306379"
         id="path12705"
         sodipodi:nodetypes="cc" />
      <path
         style="fill:none;stroke:#ffffff;stroke-width:0.406455;stroke-linecap:butt;stroke-linejoin:miter;stroke-dasharray:none;stroke-opacity:1"
         d="m 88.477848,86.882375 c 0,0 0.72756,-1.0224 1.52269,-0.14731"
         id="path12707" />
      <path
         style="fill:none;stroke:#ffffff;stroke-width:0.406455;stroke-linecap:butt;stroke-linejoin:miter;stroke-dasharray:none;stroke-opacity:1"
         d="m 86.007548,85.311315 0.21443,2.0835 0.99803,2.32893"
         id="path12709"
         sodipodi:nodetypes="ccc" />
      <path
         style="fill:none;stroke:#ffffff;stroke-width:0.406455;stroke-linecap:butt;stroke-linejoin:miter;stroke-dasharray:none;stroke-opacity:1"
         d="m 87.106158,85.212721 c 0,0 -0.78087,0.805874 0.0446,2.553584"
         id="path12711" />
      <path
         style="fill:none;stroke:#ffffff;stroke-width:0.406455;stroke-linecap:butt;stroke-linejoin:miter;stroke-dasharray:none;stroke-opacity:1"
         d="m 87.819358,87.012215 1.4379,1.80454 c 0,0 0.0267,0.23486 0.0415,1.0564"
         id="path12713" />
      <path
         style="fill:#000000;stroke:#ffffff;stroke-width:0.406455;stroke-dasharray:none;stroke-opacity:1"
         d="m 85.636808,87.052465 -1.92657,0.84722 0.36463,0.14611 -0.9699,0.66142 2.13466,-0.59762 -0.5829,-0.25523 z"
         id="path12715"
         sodipodi:nodetypes="ccccccc" />
      <path
         style="fill:#000000;stroke:#ffffff;stroke-width:0.406455;stroke-dasharray:none;stroke-opacity:1"
         d="m 85.350248,85.707695 -2.16646,-0.485512 0.39728,0.370192 -1.10047,-0.0311 2.38628,0.84767 -0.6342,-0.6114 z"
         id="path12717"
         sodipodi:nodetypes="ccccccc" />
    </g>
    <g
       id="g12727"
       transform="matrix(3.4717513,0,0,3.4717513,-669.55268,-241.10407)"
       style="stroke:#ffffff;stroke-width:0.406455;stroke-dasharray:none;stroke-opacity:1">
      <path
         id="path12721"
         style="fill:none;stroke:#ffffff;stroke-width:0.406455;stroke-linecap:butt;stroke-linejoin:miter;stroke-dasharray:none;stroke-opacity:1"
         d="m 120.50479,83.326697 c -0.0532,4.26e-4 -0.10822,0.0018 -0.16537,0.0047 -1.21909,0.06019 -1.32114,1.524845 -1.07021,2.461348 0.38431,1.434263 0.55193,1.544394 0.93844,4.324284 0.3867,2.781299 1.53117,2.692342 1.53117,2.692342 0.39249,-0.375227 0.2661,-3.704947 0.91674,-3.654557 1.07051,0.08291 1.25574,2.496488 1.25574,2.496488 0,0 0.29609,1.703794 0.73742,1.016476 0.81257,-1.265477 0.44256,-2.564371 0.79065,-3.815788 0.11854,-0.426185 0.23278,-0.499545 0.74363,-1.582332 0.49062,-1.039892 0.53043,-1.886795 0.47416,-2.442021 -0.0302,-0.297424 -0.0879,-0.51115 -0.11863,-0.626009 -0.0364,0.01109 -0.34625,0.244147 -0.27358,0.550979 l -0.41154,-0.468984 -0.56578,0.07569 -0.0405,-0.474976 -0.74518,-0.141593 0.62632,-0.363285 c -0.15994,0.0293 -0.33564,0.08727 -0.52762,0.182418 -1.39727,0.692546 -1.56704,0.589 -2.02003,0.447001 -0.70975,-0.222492 -0.9951,-0.690794 -2.07584,-0.682129 z"
         sodipodi:nodetypes="sssscscsssscccccccssss" />
      <path
         style="fill:none;stroke:#ffffff;stroke-width:0.406455;stroke-linecap:butt;stroke-linejoin:miter;stroke-dasharray:none;stroke-opacity:1"
         d="m 125.22887,84.338188 -0.88749,0.75828 0.3444,0.465405 -0.52062,0.467198"
         id="path12723" />
      <path
         style="fill:none;stroke:#ffffff;stroke-width:0.406455;stroke-linecap:butt;stroke-linejoin:miter;stroke-dasharray:none;stroke-opacity:1"
         d="m 126.22321,84.68455 -0.40997,0.79381 0.32422,0.172824"
         id="path12725" />
    </g>
    <g
       id="g12739"
       transform="matrix(3.4717513,0,0,3.4717513,-710.67918,-160.59483)"
       style="stroke:#ffffff;stroke-width:0.406455;stroke-dasharray:none;stroke-opacity:1">
      <path
         style="fill:none;stroke:#ffffff;stroke-width:0.406455;stroke-linecap:butt;stroke-linejoin:miter;stroke-dasharray:none;stroke-opacity:1"
         d="m 56.063174,87.714392 c 0,0 -1.144597,0.08899 -1.531296,-2.692312 -0.386504,-2.779893 -0.553789,-2.89002 -0.938098,-4.324284 -0.250936,-0.936504 -0.148998,-2.401065 1.070099,-2.461255 1.219097,-0.06019 1.49629,0.444257 2.240953,0.677691 0.452985,0.141999 0.623248,0.245374 2.020516,-0.447173 1.397267,-0.692547 1.92078,0.576936 1.937643,0.639868 0.08823,0.329276 0.397946,1.471146 -0.355491,3.06809 -0.510857,1.082786 -0.625231,1.155868 -0.743775,1.582053 -0.348084,1.251418 0.02202,2.550263 -0.790566,3.815741 -0.441326,0.687319 -0.737538,-1.016447 -0.737538,-1.016447 0,0 -0.185197,-2.413442 -1.255699,-2.496349 -0.650643,-0.05039 -0.524264,3.27915 -0.916748,3.654377 z"
         id="path12729"
         sodipodi:nodetypes="cssssssssscsc" />
      <path
         style="fill:none;stroke:#ffffff;stroke-width:0.406455;stroke-linecap:butt;stroke-linejoin:miter;stroke-dasharray:none;stroke-opacity:1"
         d="m 67.28225,88.612109 c 0,0 -0.620284,0.89856 -2.709228,-0.631948 -2.087887,-1.529732 -2.260856,-1.478736 -3.447894,-2.132216 -0.775078,-0.42669 -1.693587,-1.456998 -1.009805,-2.391476 0.683783,-0.934478 1.185627,-0.808936 1.783931,-1.203471 0.363952,-0.24 0.534177,-0.297588 0.901048,-1.775439 0.366871,-1.477851 1.526426,-1.034092 1.57851,-1.005419 0.272519,0.150024 1.219792,0.667528 1.839875,2.262611 0.420439,1.081524 0.401368,1.213188 0.615867,1.578273 0.629839,1.072008 1.717914,1.647575 2.081285,3.06985 0.197366,0.77247 -1.117511,-0.12152 -1.117511,-0.12152 0,0 -1.72336,-1.43849 -2.414552,-0.706483 -0.420102,0.444909 1.880733,2.524237 1.898474,3.057238 z"
         id="path12731"
         sodipodi:nodetypes="cssssssssscsc" />
      <path
         style="fill:none;stroke:#ffffff;stroke-width:0.406455;stroke-linecap:butt;stroke-linejoin:miter;stroke-dasharray:none;stroke-opacity:1"
         d="m 54.238783,83.775358 c 0,0 -2.18504,-0.732937 -2.866241,-0.0627 -1.249691,1.229578 0.08619,5.873715 0.08619,5.873715 l 20.160089,0.02035 c 0,0 1.122496,-4.40548 -0.233975,-5.772323 -1.00702,-1.01472 -4.283823,-0.206334 -4.283823,-0.206334"
         id="path12733"
         sodipodi:nodetypes="csccsc" />
      <path
         style="fill:#000000;stroke:#ffffff;stroke-width:0.406455;stroke-dasharray:none;stroke-opacity:1"
         d="m 62.155183,78.831536 1.54784,-0.243282 -1.004615,0.396225 0.13763,0.364231 -1.587658,0.09953 1.069948,-0.328929 z"
         id="path12735" />
      <path
         style="fill:#000000;stroke:#ffffff;stroke-width:0.406455;stroke-dasharray:none;stroke-opacity:1"
         d="m 62.089283,77.986075 -0.913403,1.085788 0.458126,-0.85106 -0.299325,-0.140382 1.021691,-1.021609 -0.540522,0.849262 z"
         id="path12737"
         inkscape:transform-center-x="0.061259697"
         inkscape:transform-center-y="0.0021032717" />
    </g>
    <g
       id="g13926"
       style="stroke-width:0.406455;stroke-dasharray:none"
       transform="matrix(3.4717513,0,0,3.4717513,-1301.8723,-44.390454)">
      <g
         id="g12747"
         style="stroke:#ffffff;stroke-width:0.406455;stroke-dasharray:none;stroke-opacity:1"
         transform="translate(323.00086,-52.536529)">
        <path
           style="fill:none;stroke:#ffffff;stroke-width:0.406455;stroke-linecap:butt;stroke-linejoin:miter;stroke-dasharray:none;stroke-opacity:1"
           d="m 25.621327,108.0084 c 0,0 -1.144597,0.089 -1.531296,-2.69231 -0.386504,-2.77989 -0.553789,-2.89002 -0.938098,-4.32428 -0.250936,-0.93651 -0.148998,-2.401069 1.070099,-2.461259 1.219097,-0.06019 1.49629,0.444257 2.240953,0.677691 0.452985,0.141999 0.623248,0.245374 2.020516,-0.447173 1.397267,-0.692547 1.92078,0.576936 1.937643,0.639868 0.08823,0.329276 0.397946,1.471143 -0.355491,3.068093 -0.510857,1.08278 -0.625231,1.15586 -0.743775,1.58205 -0.348084,1.25142 0.02202,2.55026 -0.790566,3.81574 -0.441326,0.68732 -0.737538,-1.01645 -0.737538,-1.01645 0,0 -0.185197,-2.41344 -1.255699,-2.49634 -0.650643,-0.0504 -0.524264,3.27915 -0.916748,3.65437 z"
           id="path12741"
           sodipodi:nodetypes="cssssssssscsc" />
        <path
           style="fill:none;stroke:#ffffff;stroke-width:0.406455;stroke-linecap:butt;stroke-linejoin:miter;stroke-dasharray:none;stroke-opacity:1"
           d="m 32.572763,103.07988 c 0,0 -0.795534,-0.15273 -0.974991,-2.73613 -0.17937,-2.582083 0.281852,-0.40357 -0.888241,-3.750709 -0.29197,-0.835203 0.0196,-2.233989 1.174703,-2.314944 1.155101,-0.08096 1.383156,0.0305 2.070687,0.232791 0.418232,0.123055 0.572097,0.568767 1.937639,-0.104976 1.365543,-0.673745 1.775104,0.498326 1.786825,0.556614 0.06133,0.30498 0.277536,1.362521 -0.540468,2.865735 -0.554641,1.01924 -0.667509,1.08966 -0.807885,1.48914 -0.412204,1.173029 -0.149456,2.375589 -1.001181,3.571189 -0.462586,0.64937 -0.628536,-0.93195 -0.628536,-0.93195 0,0 -0.01375,-2.244779 -1.019,-2.300179 -0.61098,-0.0337 -0.713917,3.065819 -1.109552,3.423419 z"
           id="path12743"
           sodipodi:nodetypes="cssssssssscsc" />
        <path
           style="fill:none;stroke:#ffffff;stroke-width:0.406455;stroke-linecap:butt;stroke-linejoin:miter;stroke-dasharray:none;stroke-opacity:1"
           d="m 23.796936,104.06937 c 0,0 -2.18504,-0.73294 -2.866241,-0.0627 -1.249691,1.22958 0.08619,5.87371 0.08619,5.87371 l 20.160089,0.0203 c 0,0 1.217719,-2.61171 -0.233975,-5.77232 -0.331788,-0.72236 -3.005197,-0.69068 -3.505796,0.12032 -3.86362,6.25924 -8.230887,0.62062 -8.230887,0.62062"
           id="path12745"
           sodipodi:nodetypes="csccssc" />
      </g>
      <g
         id="use12749"
         style="fill:#ffffff;stroke:#ffffff;stroke-width:14.7158;stroke-dasharray:none;stroke-opacity:1"
         transform="matrix(-0.02219033,-0.00120151,8.2229732e-4,-0.03433467,357.62148,52.993821)">
        <title
           id="title15068">Down Arrow</title>
        <path
           d="M 36,63 14,41 V 26 L 30,42 V 10 H 42 V 42 L 58,26 v 15 z"
           style="stroke:none;stroke-width:14.7158;stroke-dasharray:none"
           id="path15070" />
      </g>
    </g>
    <g
       id="g13944"
       style="stroke-width:0.406455;stroke-dasharray:none"
       transform="matrix(3.4717513,0,0,3.4717513,-553.08549,-114.96122)">
      <g
         id="g12769"
         transform="matrix(0.4177071,0,0,0.41571004,82.948248,-46.808792)"
         style="stroke:#ffffff;stroke-width:0.975397;stroke-dasharray:none;stroke-opacity:1">
        <path
           style="fill:none;stroke:#ffffff;stroke-width:0.975397;stroke-linecap:butt;stroke-linejoin:miter;stroke-dasharray:none;stroke-opacity:1"
           d="m 105.84032,219.63666 0.13198,4.42952 -2.86822,2.43989 -2.24341,25.57415 13.06048,-0.0657 -2.19147,-25.66456 -2.54249,-2.19305 -0.0132,-4.55912 z"
           id="path12753"
           sodipodi:nodetypes="ccccccccc" />
        <path
           style="fill:none;stroke:#ffffff;stroke-width:0.975397;stroke-linecap:butt;stroke-linejoin:miter;stroke-dasharray:none;stroke-opacity:1"
           d="m 105.90471,224.02122 3.14633,0.0408"
           id="path12755" />
        <path
           style="fill:none;stroke:#ffffff;stroke-width:0.975397;stroke-linecap:butt;stroke-linejoin:miter;stroke-dasharray:none;stroke-opacity:1"
           d="m 103.15801,226.64346 8.64784,-0.01"
           id="path12757" />
        <path
           style="fill:none;stroke:#ffffff;stroke-width:0.975397;stroke-linecap:butt;stroke-linejoin:miter;stroke-dasharray:none;stroke-opacity:1"
           d="m 101.24781,249.4212 12.14048,-0.0872"
           id="path12759" />
        <path
           style="fill:none;stroke:#ffffff;stroke-width:0.975397;stroke-linecap:butt;stroke-linejoin:miter;stroke-dasharray:none;stroke-opacity:1"
           d="m 121.4354,221.27659 c 0,0 -3.24138,-0.60395 -3.38171,0.20106 -0.3604,2.06749 -0.28981,4.18807 -0.50369,6.27581 -0.094,0.91806 3.63597,0.42014 3.63597,0.42014 0,0 -0.0401,5.28122 -0.062,7.05065 -0.0544,4.39278 -1.83257,10.60796 -0.96018,15.99458 0.24938,1.53979 3.42903,3.23815 3.38763,-0.0498 -0.14621,-11.61212 0.15588,-22.87855 0.15588,-22.87855 0,0 0.34956,-5.48786 0.26275,-6.95022 -0.0501,-0.84367 -1.54616,-2.39136 -2.43968,-0.2874 z"
           id="path12761"
           sodipodi:nodetypes="csscssscssc" />
        <path
           style="fill:none;stroke:#ffffff;stroke-width:0.975397;stroke-linecap:butt;stroke-linejoin:miter;stroke-dasharray:none;stroke-opacity:1"
           d="m 121.45217,220.94628 c -0.0651,2.21855 -0.18362,6.07383 -0.24298,6.99105"
           id="path12763"
           sodipodi:nodetypes="cc" />
        <path
           style="fill:none;stroke:#ffffff;stroke-width:0.975397;stroke-linecap:butt;stroke-linejoin:miter;stroke-dasharray:none;stroke-opacity:1"
           d="m 117.98864,223.36373 c 1.21547,1.03538 2.39258,0.41266 3.64432,0.10687"
           id="path12765"
           sodipodi:nodetypes="cc" />
        <path
           style="fill:none;stroke:#ffffff;stroke-width:0.975397;stroke-linecap:butt;stroke-linejoin:miter;stroke-dasharray:none;stroke-opacity:1"
           d="m 117.69361,225.52062 c 1.33216,1.06982 2.50176,0.70751 3.64432,0.10687"
           id="path12767"
           sodipodi:nodetypes="cc" />
      </g>
      <g
         aria-label="Hapliv"
         transform="rotate(-91.490036,8.6298,-1.1764662)"
         id="g12783"
         style="font-size:2.11667px;line-height:1.25;fill:#ffffff;stroke:none;stroke-width:0.406455;stroke-dasharray:none;stroke-opacity:1">
        <path
           d="m -51.239503,115.68494 h 0.208773 v 0.63252 h 0.758611 v -0.63252 h 0.208773 v 1.54306 h -0.208773 v -0.73484 h -0.758611 v 0.73484 h -0.208773 z"
           id="path12771"
           style="fill:#ffffff;stroke:none;stroke-width:0.406455;stroke-dasharray:none;stroke-opacity:1" />
        <path
           d="m -49.130068,116.64612 q -0.230477,0 -0.319361,0.0527 -0.08888,0.0527 -0.08888,0.17983 0,0.10129 0.06615,0.16123 0.06718,0.0589 0.181901,0.0589 0.15813,0 0.253215,-0.11163 0.09612,-0.11265 0.09612,-0.29869 v -0.0424 z m 0.379306,-0.0785 v 0.66043 h -0.19017 v -0.1757 q -0.06511,0.10542 -0.162264,0.15606 -0.09715,0.0496 -0.237712,0.0496 -0.177767,0 -0.283187,-0.0992 -0.104387,-0.10025 -0.104387,-0.26768 0,-0.19534 0.130225,-0.29456 0.131258,-0.0992 0.390674,-0.0992 h 0.266651 v -0.0186 q 0,-0.13126 -0.08682,-0.20257 -0.08578,-0.0724 -0.241847,-0.0724 -0.09922,0 -0.19327,0.0238 -0.09405,0.0238 -0.180868,0.0713 v -0.1757 q 0.104387,-0.0403 0.202572,-0.0599 0.09819,-0.0207 0.191204,-0.0207 0.251147,0 0.375171,0.13022 0.124024,0.13023 0.124024,0.39481 z"
           id="path12773"
           style="fill:#ffffff;stroke:none;stroke-width:0.406455;stroke-dasharray:none;stroke-opacity:1" />
        <path
           d="m -48.175086,117.05436 v 0.61392 h -0.191203 v -1.59784 h 0.191203 v 0.1757 q 0.05994,-0.10335 0.150895,-0.15296 0.09199,-0.0506 0.219109,-0.0506 0.21084,0 0.342098,0.16743 0.132292,0.16743 0.132292,0.44028 0,0.27286 -0.132292,0.44029 -0.131258,0.16743 -0.342098,0.16743 -0.127124,0 -0.219109,-0.0496 -0.09095,-0.0506 -0.150895,-0.154 z m 0.64699,-0.40411 q 0,-0.2098 -0.08682,-0.32866 -0.08578,-0.11989 -0.236678,-0.11989 -0.150896,0 -0.237712,0.11989 -0.08578,0.11886 -0.08578,0.32866 0,0.20981 0.08578,0.3297 0.08682,0.11886 0.237712,0.11886 0.150895,0 0.236678,-0.11886 0.08682,-0.11989 0.08682,-0.3297 z"
           id="path12775"
           style="fill:#ffffff;stroke:none;stroke-width:0.406455;stroke-dasharray:none;stroke-opacity:1" />
        <path
           d="m -47.015465,115.61982 h 0.19017 v 1.60818 h -0.19017 z"
           id="path12777"
           style="fill:#ffffff;stroke:none;stroke-width:0.406455;stroke-dasharray:none;stroke-opacity:1" />
        <path
           d="m -46.427386,116.07044 h 0.190169 v 1.15756 h -0.190169 z m 0,-0.45062 h 0.190169 v 0.24082 h -0.190169 z"
           id="path12779"
           style="fill:#ffffff;stroke:none;stroke-width:0.406455;stroke-dasharray:none;stroke-opacity:1" />
        <path
           d="m -45.975734,116.07044 h 0.201538 l 0.361736,0.97152 0.361736,-0.97152 h 0.201538 l -0.434083,1.15756 h -0.258382 z"
           id="path12781"
           style="fill:#ffffff;stroke:none;stroke-width:0.406455;stroke-dasharray:none;stroke-opacity:1" />
      </g>
    </g>
    <g
       id="g12807"
       transform="matrix(3.4717513,0,0,3.4717513,-396.37137,-328.83659)"
       style="stroke:#ffffff;stroke-width:0.406455;stroke-dasharray:none;stroke-opacity:1">
      <g
         id="g12799"
         transform="matrix(0.44678879,0,0,0.4456831,18.155866,-17.221429)"
         style="stroke:#ffffff;stroke-width:0.910853;stroke-dasharray:none;stroke-opacity:1">
        <path
           style="fill:none;stroke:#ffffff;stroke-width:0.910853;stroke-linecap:butt;stroke-linejoin:miter;stroke-dasharray:none;stroke-opacity:1"
           d="m 213.54082,280.92849 -6.28978,7.68085 -4.27129,-3.93928 6.39075,-8.14527"
           id="path12787" />
        <path
           style="fill:none;stroke:#ffffff;stroke-width:0.910853;stroke-linecap:butt;stroke-linejoin:miter;stroke-dasharray:none;stroke-opacity:1"
           d="m 204.74808,283.1026 4.04536,3.62559"
           id="path12789" />
        <path
           style="fill:none;stroke:#ffffff;stroke-width:0.910853;stroke-linecap:butt;stroke-linejoin:miter;stroke-dasharray:none;stroke-opacity:1"
           d="m 206.72552,280.64436 1.64513,1.34483"
           id="path12791" />
        <path
           style="fill:none;stroke:#ffffff;stroke-width:0.910853;stroke-linecap:butt;stroke-linejoin:miter;stroke-dasharray:none;stroke-opacity:1"
           d="m 208.52229,278.07762 1.56847,1.33903"
           id="path12793" />
        <path
           style="fill:none;stroke:#ffffff;stroke-width:0.910853;stroke-linecap:butt;stroke-linejoin:miter;stroke-dasharray:none;stroke-opacity:1"
           d="m 203.79316,285.56867 c 0,0 -1.53148,2.13836 -1.88904,2.71554 -0.28841,0.46556 0.35429,1.37964 1.20119,1.67441 0.68321,0.2378 3.37049,-2.05366 3.37049,-2.05366 z"
           id="path12795"
           sodipodi:nodetypes="csscc" />
        <path
           style="fill:none;stroke:#ffffff;stroke-width:0.910853;stroke-linecap:butt;stroke-linejoin:miter;stroke-dasharray:none;stroke-opacity:1"
           d="m 202.35003,289.39273 -5.63573,7.20074"
           id="path12797" />
      </g>
      <path
         style="fill:none;stroke:#ffffff;stroke-width:0.406455;stroke-linecap:butt;stroke-linejoin:miter;stroke-dasharray:none;stroke-opacity:1"
         d="m 101.18881,119.13756 c 0,0 -1.1446,0.089 -1.531297,-2.69231 -0.386504,-2.77989 -0.553789,-2.89002 -0.938098,-4.32428 -0.250936,-0.93651 -0.148998,-2.40107 1.070099,-2.46126 1.219096,-0.0602 1.496286,0.44426 2.240956,0.67769 0.45298,0.142 0.62325,0.24538 2.02051,-0.44717 1.39727,-0.69255 1.92078,0.57694 1.93765,0.63987 0.0882,0.32927 0.39794,1.47114 -0.35549,3.06809 -0.51086,1.08278 -0.62524,1.15586 -0.74378,1.58205 -0.34808,1.25142 0.022,2.55026 -0.79057,3.81574 -0.44132,0.68732 -0.73753,-1.01645 -0.73753,-1.01645 0,0 -0.1852,-2.41344 -1.2557,-2.49634 -0.65065,-0.0504 -0.52427,3.27915 -0.91675,3.65437 z"
         id="path12801"
         sodipodi:nodetypes="cssssssssscsc" />
      <path
         style="fill:none;stroke:#ffffff;stroke-width:0.406455;stroke-linecap:butt;stroke-linejoin:miter;stroke-dasharray:none;stroke-opacity:1"
         d="m 99.422753,115.4525 c 0,0 -2.542035,-0.39909 -3.982074,0.0701"
         id="path12803" />
      <path
         style="fill:none;stroke:#ffffff;stroke-width:0.406455;stroke-linecap:butt;stroke-linejoin:miter;stroke-dasharray:none;stroke-opacity:1"
         d="m 108.83137,115.63831 c 0,0 -2.54204,-0.39909 -3.98207,0.0701"
         id="path12805" />
    </g>
    <g
       id="g12827"
       transform="matrix(3.4717513,0,0,3.4717513,-620.97246,-343.68201)"
       style="stroke:#ffffff;stroke-width:0.406455;stroke-dasharray:none;stroke-opacity:1">
      <path
         style="fill:none;stroke:#ffffff;stroke-width:0.406455;stroke-linecap:butt;stroke-linejoin:miter;stroke-dasharray:none;stroke-opacity:1"
         d="m 128.09461,123.17641 c 0,0 -1.14459,0.089 -1.53129,-2.69231 -0.38651,-2.77989 -0.55379,-2.89002 -0.9381,-4.32428 -0.25094,-0.93651 -0.149,-2.40107 1.0701,-2.46126 1.2191,-0.0602 1.49629,0.44426 2.24095,0.67769 0.45299,0.142 0.62325,0.24538 2.02052,-0.44717 1.39727,-0.69255 1.92078,0.57694 1.93764,0.63987 0.0882,0.32927 0.39795,1.47115 -0.35549,3.06809 -0.51086,1.08279 -0.62523,1.15587 -0.74378,1.58205 -0.34808,1.25142 0.022,2.55027 -0.79056,3.81574 -0.44133,0.68732 -0.73754,-1.01644 -0.73754,-1.01644 0,0 -0.1852,-2.41345 -1.2557,-2.49635 -0.65064,-0.0504 -0.52426,3.27915 -0.91675,3.65437 z"
         id="path12809"
         sodipodi:nodetypes="cssssssssscsc" />
      <path
         style="fill:none;stroke:#ffffff;stroke-width:0.406455;stroke-linecap:butt;stroke-linejoin:miter;stroke-dasharray:none;stroke-opacity:1"
         d="m 127.9203,123.14737 c 0,0 -0.26159,-0.47067 -0.54248,-2.70775 -0.28074,-2.23591 -0.57989,-2.73256 -0.85904,-3.88617 -0.18227,-0.75324 -0.10823,-1.93122 0.77728,-1.97963 0.88551,-0.0484 1.08686,0.35733 1.62776,0.54508 0.32903,0.11421 0.4527,0.19736 1.46763,-0.35967 1.01493,-0.55703 1.3952,0.46404 1.40744,0.51466 0.0641,0.26484 0.28906,1.18327 -0.25821,2.46772 -0.37107,0.8709 -0.45415,0.92969 -0.54026,1.27247 -0.25283,1.00654 0.12168,1.97395 -0.1,3.84229 -0.0393,0.3316 -0.002,0.002 -0.002,0.002 0.14274,-0.0547 -0.0158,-5.00892 -1.41402,-4.92064 -0.44474,0.0281 -2.79476,-0.59877 -1.72742,4.82404 z"
         id="path12811"
         sodipodi:nodetypes="cssssssssscscc" />
      <path
         style="fill:none;stroke:#ffffff;stroke-width:0.406455;stroke-linecap:butt;stroke-linejoin:miter;stroke-dasharray:none;stroke-opacity:1"
         d="m 127.29261,119.69952 c 0.9848,-3.33849 -0.0809,-0.76701 0.2845,-3.8917"
         id="path12813"
         sodipodi:nodetypes="cc" />
      <path
         style="fill:none;stroke:#ffffff;stroke-width:0.406455;stroke-linecap:butt;stroke-linejoin:miter;stroke-dasharray:none;stroke-opacity:1"
         d="m 127.59777,117.54911 c 0.4526,0.4243 0.84858,-1.63022 1.35104,-1.40545"
         id="path12815"
         sodipodi:nodetypes="cc" />
      <path
         style="fill:none;stroke:#ffffff;stroke-width:0.406455;stroke-linecap:butt;stroke-linejoin:miter;stroke-dasharray:none;stroke-opacity:1"
         d="m 128.4006,116.51787 c 0,0 -0.30668,-0.3238 -0.0762,-0.97135"
         id="path12817" />
      <g
         id="g12825"
         transform="matrix(-0.96238888,0.47112569,0.31864779,1.4225201,216.32428,-108.9814)"
         style="stroke:#ffffff;stroke-width:0.329772;stroke-dasharray:none;stroke-opacity:1">
        <path
           style="fill:none;stroke:#ffffff;stroke-width:0.329772;stroke-linecap:butt;stroke-linejoin:miter;stroke-dasharray:none;stroke-opacity:1"
           d="m 128.06689,118.30023 c 0.006,-0.82391 -0.20241,-1.32062 -0.97374,-2.59798"
           id="path12819"
           sodipodi:nodetypes="cc" />
        <path
           style="fill:none;stroke:#ffffff;stroke-width:0.329772;stroke-linecap:butt;stroke-linejoin:miter;stroke-dasharray:none;stroke-opacity:1"
           d="m 127.82144,116.91518 c 0.53402,0.097 0.29074,-1.38431 0.81782,-1.42777"
           id="path12821"
           sodipodi:nodetypes="cc" />
        <path
           style="fill:none;stroke:#ffffff;stroke-width:0.329772;stroke-linecap:butt;stroke-linejoin:miter;stroke-dasharray:none;stroke-opacity:1"
           d="m 128.24701,115.94753 c 0,0 -0.62386,-0.12485 -0.3303,-0.56862"
           id="path12823"
           sodipodi:nodetypes="cc" />
      </g>
    </g>
    <g
       id="g12839"
       transform="matrix(3.4717513,0,0,3.4717513,-76.980661,-365.63323)"
       style="stroke:#ffffff;stroke-width:0.406455;stroke-dasharray:none;stroke-opacity:1">
      <path
         style="fill:none;stroke:#ffffff;stroke-width:0.406455;stroke-linecap:butt;stroke-linejoin:miter;stroke-dasharray:none;stroke-opacity:1"
         d="m 51.191597,129.33124 c 0,0 -1.14459,0.089 -1.53129,-2.69231 -0.38651,-2.77989 -0.55379,-2.89002 -0.9381,-4.32428 -0.25094,-0.93651 -0.149,-2.40107 1.0701,-2.46126 1.2191,-0.0602 1.49629,0.44426 2.24095,0.67769 0.45299,0.142 0.62325,0.24538 2.02052,-0.44717 1.39727,-0.69255 1.92078,0.57694 1.93764,0.63987 0.0882,0.32927 0.39795,1.47115 -0.35549,3.06809 -0.51086,1.08279 -0.62523,1.15587 -0.74378,1.58205 -0.34808,1.25142 0.022,2.55027 -0.79056,3.81574 -0.44133,0.68732 -0.73754,-1.01644 -0.73754,-1.01644 0,0 -0.1852,-2.41345 -1.2557,-2.49635 -0.65064,-0.0504 -0.52426,3.27915 -0.91675,3.65437 z"
         id="path12829"
         sodipodi:nodetypes="cssssssssscsc" />
      <path
         style="fill:none;stroke:#ffffff;stroke-width:0.406455;stroke-linecap:butt;stroke-linejoin:miter;stroke-dasharray:none;stroke-opacity:1"
         d="m 51.017287,129.3022 c 0,0 -0.26159,-0.47067 -0.54248,-2.70775 -0.28074,-2.23591 -0.57989,-2.73256 -0.85904,-3.88617 -0.18227,-0.75324 -0.10823,-1.93122 0.77728,-1.97963 0.88551,-0.0484 1.08686,0.35733 1.62776,0.54508 0.32903,0.11421 0.4527,0.19736 1.46763,-0.35967 1.01493,-0.55703 1.3952,0.46404 1.40744,0.51466 0.0641,0.26484 0.28906,1.18327 -0.25821,2.46772 -0.37107,0.8709 -0.45415,0.92969 -0.54026,1.27247 -0.25283,1.00654 0.12168,1.97395 -0.1,3.84229 -0.0393,0.3316 -0.002,0.002 -0.002,0.002 -1.130037,-8.58568 -3.854482,-4.06024 -3.14144,-0.0966 z"
         id="path12831"
         sodipodi:nodetypes="csssssssssccc" />
      <rect
         style="fill:none;stroke:#ffffff;stroke-width:0.406455;stroke-miterlimit:3.1;stroke-dasharray:none;stroke-opacity:1"
         id="rect12833"
         width="13.797474"
         height="15.484809"
         x="45.074142"
         y="114.99033" />
      <path
         style="fill:none;stroke:#ffffff;stroke-width:0.406455;stroke-linecap:butt;stroke-linejoin:miter;stroke-dasharray:none;stroke-opacity:1"
         d="m 46.337995,117.02836 5.727618,0.0166"
         id="path12835" />
      <path
         style="fill:none;stroke:#ffffff;stroke-width:0.406455;stroke-linecap:butt;stroke-linejoin:miter;stroke-dasharray:none;stroke-opacity:1"
         d="m 46.448633,118.63483 h 3.870735"
         id="path12837" />
    </g>
  </g>
</svg>
