<?xml version="1.0" encoding="UTF-8" standalone="no"?>
<!-- Created with Inkscape (http://www.inkscape.org/) -->

<svg
   width="415.8786mm"
   height="88.735992mm"
   viewBox="0 0 415.87859 88.735992"
   version="1.1"
   id="svg1110"
   sodipodi:docname="logo_hapliv_white.svg"
   inkscape:version="1.2 (56b05e47e7, 2022-06-09, custom)"
   xmlns:inkscape="http://www.inkscape.org/namespaces/inkscape"
   xmlns:sodipodi="http://sodipodi.sourceforge.net/DTD/sodipodi-0.dtd"
   xmlns="http://www.w3.org/2000/svg"
   xmlns:svg="http://www.w3.org/2000/svg">
  <sodipodi:namedview
     id="namedview1112"
     pagecolor="#ffffff"
     bordercolor="#666666"
     borderopacity="1.0"
     inkscape:showpageshadow="2"
     inkscape:pageopacity="0.0"
     inkscape:pagecheckerboard="0"
     inkscape:deskcolor="#d1d1d1"
     inkscape:document-units="mm"
     showgrid="false"
     inkscape:zoom="0.53480902"
     inkscape:cx="648.82974"
     inkscape:cy="-79.467619"
     inkscape:window-width="1920"
     inkscape:window-height="1026"
     inkscape:window-x="0"
     inkscape:window-y="28"
     inkscape:window-maximized="1"
     inkscape:current-layer="layer1"
     showguides="true">
    <sodipodi:guide
       position="228.20028,151.42714"
       orientation="0,-1"
       id="guide1828"
       inkscape:locked="false" />
    <sodipodi:guide
       position="256.26749,-0.31448699"
       orientation="0,-1"
       id="guide1830"
       inkscape:locked="false" />
  </sodipodi:namedview>
  <defs
     id="defs1107">
    <rect
       x="858.45605"
       y="2733.073"
       width="879.42468"
       height="58.937851"
       id="rect91746" />
  </defs>
  <g
     inkscape:label="Layer 1"
     inkscape:groupmode="layer"
     id="layer1"
     transform="translate(-1.1933696,-2.292851)">
    <path
       id="path22952"
       style="fill:#d45500;fill-opacity:1;stroke:#d45500;stroke-width:0.259379;stroke-miterlimit:4;stroke-dasharray:none;stroke-opacity:1"
       d="M 61.749093,4.5521 C 58.003384,4.5778 54.322451,5.46791 50.726267,6.4415 48.67516,7.11404 43.602184,9.58492 41.65145,10.51022 40.984612,11.09425 44.078275,9.99633 45.297778,9.65393 45.924119,9.47028 46.29721,9.38651 47.964189,9.0284 52.257578,7.79381 56.645504,6.84713 61.133575,6.70263 c 4.253119,-0.22422 9.230082,0.35476 12.276992,3.75439 2.223522,2.50715 3.012933,5.87178 3.048134,9.12786 0.177626,3.85381 -0.417591,7.78171 -2.17549,11.24655 -2.425199,5.69172 -7.550271,9.88374 -9.240234,15.93398 -1.074237,3.77061 -0.783263,7.74217 -1.082577,11.61289 -0.514883,7.3568 -1.865984,14.94704 -5.226122,21.63323 -1.472903,2.74943 -3.218953,5.64594 -6.078644,7.12389 0.02643,-5.27177 1.586128,-10.38811 1.880776,-15.63533 0.05691,-3.26539 0.136576,-6.57714 -0.748948,-9.75432 -0.767734,-3.2529 -2.273777,-6.40258 -4.781832,-8.67217 -0.561621,-0.70823 -1.375443,-1.08328 -2.173358,-1.4584 1.768127,-1.66431 3.868946,-2.90024 5.901884,-4.18958 0.583426,-0.62819 1.166869,-1.25636 1.750302,-1.88455 -1.702627,0.43919 -3.363006,1.01361 -4.861628,1.95093 -6.18972,3.45971 -10.92958,9.09398 -14.060233,15.3935 -2.652295,5.17717 -4.408967,10.74608 -6.023096,16.31657 -1.499474,-5.78921 -1.985205,-11.94854 -1.111914,-17.80685 0.402574,-2.55834 1.412429,-4.95259 2.60444,-7.23332 1.044983,-1.97713 0.871419,-4.37979 0.222312,-6.45005 -1.975578,-5.1381 -6.479615,-8.63419 -9.364857,-13.20112 -2.265944,-3.73802 -4.329969,-7.85385 -4.508329,-12.30159 -0.246553,-2.7697 0.777593,-5.66303 2.958502,-7.44399 2.615457,-2.19848 6.188128,-2.67483 9.49266,-2.51779 4.25243,-0.12178 8.404712,0.53284 12.669982,0.49334 4.908877,-0.0217 10.097949,0.47111 14.681524,-1.65861 0.96298,-0.32262 1.419217,-1.2893 2.082935,-1.98578 -1.335331,0.15101 -2.586835,0.56983 -3.835537,1.03797 C 49.24182,12.03307 42.729182,10.75813 36.463195,10.01379 32.717642,9.47623 28.913477,9.15563 25.136152,9.50996 c -3.180402,0.39065 -6.428207,1.62069 -8.4419,4.22889 -2.239247,2.73935 -3.370561,6.32047 -3.16274,9.84971 -0.138,5.3833 2.503886,10.32926 5.476454,14.63959 2.260703,3.41291 5.091068,6.48 6.848556,10.20559 0.709141,1.43522 0.653282,3.12227 -0.07535,4.5373 -1.766647,4.27409 -3.222101,8.86166 -2.772775,13.54555 0.291311,4.6694 1.348726,9.25302 2.469863,13.78068 0.590479,1.86682 1.45684,4.00902 3.443182,4.7408 1.667226,0.52046 3.086179,-0.94759 3.586134,-2.40473 1.026808,-2.92615 1.379483,-6.0003 2.270432,-8.96306 1.615058,-5.92566 3.853087,-12.04428 7.436604,-17.00937 1.241258,-1.68738 2.643301,-3.25755 4.197176,-4.66325 1.006353,1.95042 2.818736,3.35444 3.66532,5.40911 1.485264,3.11912 2.065208,6.60215 2.036458,9.97075 0.109147,5.24011 -0.933672,10.41038 -2.302342,15.44298 -0.503655,2.14523 -1.17889,4.56214 -0.176841,6.66288 0.998411,1.83099 3.576413,1.69297 5.113985,0.67632 3.055193,-2.00798 5.4363,-4.91525 7.36892,-7.98617 3.818904,-6.26696 5.466253,-13.56243 6.52127,-20.74493 0.626417,-4.39245 0.650544,-8.85416 1.334426,-13.23728 1.062837,-4.53826 4.223166,-8.13618 6.391665,-12.15864 C 78.29585,32.6295 79.746493,28.8623 80.0716,24.94179 80.0759,21.77522 80.340329,18.53957 79.409379,15.46375 78.615442,12.14981 76.92971,8.87686 73.974267,7.01001 71.376928,5.36873 68.257971,4.60923 65.204096,4.55716 c -1.151671,-0.006 -2.303324,-0.009 -3.455009,-0.005 z M 45.902662,51.14913 c -0.504004,-0.0981 -0.139582,-0.48888 0,0 z"
       sodipodi:nodetypes="scccccccccccccccccccccccccccccccccccccccccccccccccccccccccccsscc" />
    <circle
       id="circle22954"
       style="fill:#bec8b7;stroke:#000000;stroke-width:0.343136"
       cx="70.737923"
       cy="41.04163"
       r="0.022339016" />
    <path
       style="fill:#ffffff;stroke-width:0.343136"
       id="path22956"
       d="m 2.9695854,24.8504 c -0.3817708,1.28503 -0.7892992,2.562 -1.1828743,3.84335 -0.2696581,0.87793 -0.6673702,1.92963 -0.5814147,2.8832 0.04237,0.47005 0.2614644,0.90697 0.3921978,1.36047 0.3673662,0.43464 0.6600999,0.94543 1.1020998,1.30392 1.27143,1.03118 3.3952039,1.8657 4.8861775,2.28487 3.2661805,0.91827 6.2229015,1.52789 9.6254935,1.58863 3.056702,0.0546 6.412966,-0.42097 9.469326,-0.49205 7.881846,-0.92692 15.63609,-2.56973 23.276811,-4.68195 2.783985,-0.76961 13.348691,-5.32221 15.989745,-6.13638 l -6.923448,2.10404 -4.579724,1.33449 c 0,0 -6.459368,2.0881 -9.063804,2.6827 -9.363288,2.13762 -10.321167,2.49305 -17.498298,3.32925 0,0 -6.986683,0.51576 -8.042213,0.47683 C 16.443849,36.60649 14.604618,36.5829 11.581967,35.82126 10.234386,35.48169 8.4276674,34.83188 7.2809364,33.91428 6.8916229,33.60276 6.619502,33.16799 6.2887874,32.79485 6.1541165,32.40172 5.9378503,32.02762 5.884771,31.61547 5.7675577,30.70533 6.1127884,29.67748 6.3776454,28.8415 c 0.4123995,-1.30165 0.9046774,-2.59152 1.62421,-3.75761 z"
       sodipodi:nodetypes="csscssscsccsscssscsscc" />
    <path
       d="m 86.904317,40.58902 0.663529,-14.96444 0.321712,-11.41566 0.06033,-3.92103 q 0.0201,-0.84376 0.0201,-3.57359 l 2.050897,0.0248 1.910168,-0.0248 -0.583102,14.86517 h 16.326809 l 0.36193,-11.78791 q 0.0201,-0.62041 0.0201,-3.07726 l 2.05091,0.0248 1.91016,-0.0248 q -0.52279,9.82739 -0.76407,17.66945 -0.22117,7.81724 -0.3016,16.20527 l -1.97048,-0.0497 q -0.30159,0 -2.07101,0.0497 0.52278,-7.7428 0.64341,-15.68413 H 91.227311 l -0.2815,10.17483 -0.08041,5.5093 -2.030805,-0.0497 q -0.28149,0 -1.930258,0.0497 z"
       style="font-size:22.3274px;-inkscape-font-specification:'Eras Medium ITC';fill:#ffffff;fill-opacity:1;stroke:#ffffff;stroke-width:0.648447;stroke-miterlimit:4;stroke-dasharray:none;stroke-opacity:1"
       id="path22958" />
    <path
       d="m 118.09017,19.44524 c 0.12061,-0.72796 0.24797,-1.80334 0.38203,-3.22617 1.60856,-0.51287 3.00263,-0.86031 4.18223,-1.0423 1.193,-0.19854 2.35252,-0.29779 3.47851,-0.29779 1.20641,0 2.3324,0.14062 3.37795,0.42188 1.05897,0.26471 1.93698,0.70314 2.63402,1.31528 0.69704,0.61215 1.1595,1.31529 1.38738,2.10941 0.22788,0.79413 0.34182,1.64618 0.34182,2.55612 0,1.14156 -0.0738,3.06072 -0.22118,5.75746 -0.13409,2.6802 -0.24129,5.16186 -0.32171,7.44499 -0.0669,2.28313 -0.10051,4.3181 -0.10051,6.1049 -0.72384,-0.0331 -1.31365,-0.0497 -1.76941,-0.0497 -0.42896,0 -1.03887,0.0166 -1.82973,0.0497 l 0.42225,-6.77495 0.30161,-8.01577 c -0.46917,0.4467 -0.82438,0.76104 -1.06567,0.94302 -0.22789,0.182 -0.48928,0.35572 -0.78417,0.52116 -0.29491,0.1489 -0.62333,0.29781 -0.98524,0.4467 -0.34852,0.13236 -1.03887,0.37225 -2.07101,0.71969 -1.01875,0.34742 -1.74261,0.61213 -2.17154,0.79413 -0.92494,0.36397 -1.65549,0.72794 -2.19168,1.09193 -0.53617,0.36397 -0.98524,0.76104 -1.34716,1.1912 -0.36191,0.43015 -0.6166,0.8603 -0.76405,1.29046 -0.17429,0.52942 -0.26141,1.08366 -0.26141,1.66271 0,0.8934 0.21449,1.67099 0.64343,2.33277 0.42894,0.66177 0.96513,1.12502 1.60855,1.38973 0.65683,0.24817 1.441,0.37225 2.35252,0.37225 0.56299,0 1.1528,-0.0497 1.7694,-0.1489 0.61661,-0.0992 1.441,-0.3557 2.47316,-0.7693 -0.18766,0.64523 -1.36265,2.06847 -1.60392,3.40856 -0.97855,0.23163 -0.81562,-0.0584 -1.43223,-0.009 -0.61662,0.0661 -1.19972,0.0992 -1.7493,0.0992 -1.83645,0 -3.27073,-0.2647 -4.30288,-0.79412 -1.03216,-0.52943 -1.80292,-1.33184 -2.3123,-2.40722 -0.50938,-1.09193 -0.76406,-2.27486 -0.76406,-3.54878 0,-0.7445 0.087,-1.43109 0.26139,-2.05978 0.18766,-0.62869 0.43565,-1.19948 0.74395,-1.71235 0.30831,-0.51288 0.74396,-1.02575 1.30696,-1.53863 0.5764,-0.51288 1.17289,-0.93476 1.78952,-1.26565 0.63001,-0.33089 1.36057,-0.65351 2.19164,-0.96785 0.83109,-0.33089 2.16484,-0.76932 4.00129,-1.31529 0.58979,-0.16544 1.09247,-0.33089 1.50803,-0.49633 0.41553,-0.18199 0.78416,-0.3557 1.10587,-0.52114 0.32171,-0.16545 0.6032,-0.3557 0.84447,-0.57078 0.2413,-0.23163 0.46248,-0.50461 0.66355,-0.81895 0.20105,-0.33089 0.34851,-0.66178 0.44235,-0.99267 0.0939,-0.33089 0.14073,-0.66178 0.14073,-0.99267 0,-0.81067 -0.21448,-1.50554 -0.64342,-2.08459 -0.42896,-0.57906 -0.99195,-0.98439 -1.68899,-1.21602 -0.68363,-0.23162 -1.49461,-0.34744 -2.43293,-0.34744 -0.87131,0 -1.76943,0.091 -2.69433,0.27299 -0.91152,0.16544 -1.7024,0.37224 -2.37262,0.62042 -0.65682,0.23162 -1.48121,0.58732 -2.47315,1.06711 z"
       style="font-size:22.3274px;-inkscape-font-specification:'Eras Medium ITC';fill:#ffffff;fill-opacity:1;stroke:#ffffff;stroke-width:0.648447;stroke-miterlimit:4;stroke-dasharray:none;stroke-opacity:1"
       id="path22960"
       sodipodi:nodetypes="sccscssscccsccccccccsscsscsscccsscscscccccsccssscsccss" />
    <path
       d="m 138.9973,48.19249 c 0.0747,-4.27624 0.17832,-24.47879 0.40621,-31.82452 0,0 -0.0268,4.66554 0,0 2.19836,-0.57905 3.95436,-0.96785 5.26801,-1.16638 1.32705,-0.21506 2.65413,-0.32261 3.98117,-0.32261 2.09112,0 3.90744,0.4136 5.44898,1.24083 1.54153,0.81067 2.74125,2.25003 3.59916,4.3181 0.85788,2.0515 1.28683,4.37599 1.28683,6.97347 0,1.80334 -0.20106,3.54878 -0.6032,5.23631 -0.40215,1.67099 -1.01878,3.16826 -1.84984,4.49181 -0.81768,1.32356 -1.80963,2.3245 -2.97584,3.00282 -1.16618,0.66178 -2.46643,0.99267 -3.90073,0.99267 -0.8579,0 -1.6823,-0.13235 -2.47317,-0.39707 -0.79086,-0.24818 -1.48121,-0.57906 -2.07101,-0.99267 -0.57641,-0.41361 -1.06567,-0.87686 -1.4678,-1.38973 -0.38873,-0.51288 -0.8646,-1.2822 -1.42758,-2.30795 l -0.0725,8.96852 c -0.0537,1.6048 -0.14663,4.64979 -0.14663,4.64979 l -0.57221,8.18374 c -0.51803,7.28663 -2.05195,6.58046 -2.10192,6.07355 -0.46915,-4.75909 -0.40196,-11.49837 -0.3886,-12.26302 z m 3.86459,-28.87134 -0.14071,1.88606 -0.10051,2.58094 c -0.0537,1.35664 -0.0939,2.46513 -0.12061,3.32543 -0.0267,0.84376 -0.0402,1.43936 -0.0402,1.7868 0,1.22428 0.10051,2.3824 0.30161,3.47433 0.21448,1.09193 0.63002,2.09286 1.24664,3.00282 0.63002,0.89339 1.36726,1.57172 2.21176,2.03495 0.84449,0.46325 1.71578,0.69487 2.61389,0.69487 1.26003,0 2.39944,-0.43016 3.41819,-1.29047 1.03216,-0.8603 1.83643,-2.1425 2.41283,-3.84657 0.57639,-1.70408 0.86459,-3.56532 0.86459,-5.58374 0,-2.03497 -0.30161,-3.78869 -0.9048,-5.26114 -0.60322,-1.47244 -1.4142,-2.53129 -2.43295,-3.17652 -1.01875,-0.66178 -2.17155,-0.99267 -3.45839,-0.99267 -1.83643,0 -3.7935,0.45497 -5.87123,1.36491 z"
       style="font-size:22.3274px;-inkscape-font-specification:'Eras Medium ITC';fill:#ffffff;fill-opacity:1;stroke:#ffffff;stroke-width:0.648447;stroke-miterlimit:4;stroke-dasharray:none;stroke-opacity:1"
       id="path22962"
       sodipodi:nodetypes="scccsccscccscccccscsssccccsccsscssscssc" />
    <path
       d="m 162.94873,40.58902 q 0.40212,-7.64354 0.78416,-18.11615 0.26139,-7.61871 0.38203,-15.75857 l 1.86995,0.0248 q 0.5831,0 1.78951,-0.0248 l -0.62331,14.56737 -0.44236,14.74109 -0.0804,4.56626 q -1.18631,-0.0497 -1.7694,-0.0497 -0.2413,0 -1.91017,0.0497 z"
       style="font-size:22.3274px;-inkscape-font-specification:'Eras Medium ITC';fill:#ffffff;fill-opacity:1;stroke:#ffffff;stroke-width:0.648447;stroke-miterlimit:4;stroke-dasharray:none;stroke-opacity:1"
       id="path22964" />
    <path
       style="font-size:22.3274px;-inkscape-font-specification:'Eras Medium ITC';fill:#ffffff;fill-opacity:1;stroke:#ffffff;stroke-width:0.648447;stroke-miterlimit:4;stroke-dasharray:none;stroke-opacity:1"
       d="m 172.25824,40.58902 0.34179,-6.2538 0.38204,-10.67116 0.16083,-8.21431 1.84984,0.0248 1.80961,-0.0248 q -0.22116,3.8714 -0.40213,8.11505 -0.18093,4.21884 -0.30161,9.23179 -0.10051,5.01296 -0.10051,7.79243 -1.26674,-0.0497 -1.80962,-0.0497 -0.50269,0 -1.93027,0.0497 z"
       id="path22966" />
    <path
       d="m 186.85586,40.58902 -0.68363,-2.50648 q -0.34181,-1.21602 -1.60855,-5.53411 l -5.04685,-17.09868 q 1.22653,0.0248 1.93027,0.0248 0.76408,0 1.80962,-0.0248 l 0.42226,1.73717 q 0.18093,0.74451 0.62331,2.38239 l 4.72512,17.29721 6.394,-18.95992 0.76407,-2.45685 q 1.1863,0.0248 1.89006,0.0248 0.70374,0 1.89005,-0.0248 l -2.61391,6.92385 -5.2479,14.44328 -1.28685,3.77214 q -1.24663,-0.0497 -1.95036,-0.0497 -0.72386,0 -2.01071,0.0497 z"
       style="font-size:22.3274px;-inkscape-font-specification:'Eras Medium ITC';fill:#ffffff;fill-opacity:1;stroke:#ffffff;stroke-width:0.648447;stroke-miterlimit:4;stroke-dasharray:none;stroke-opacity:1"
       id="path22968" />
    <g
       id="g28898"
       transform="matrix(1.5913807,0,0,1.5913807,-20.65732,-718.72804)">
      <path
         d="m 146.39188,464.11714 v 11.46 h 2.40848 q 3.05007,0 4.46161,-1.3819 1.4214,-1.38193 1.4214,-4.3629 0,-2.96124 -1.4214,-4.33329 -1.41154,-1.38191 -4.46161,-1.38191 z m -1.9939,-1.63855 h 4.0964 q 4.28392,0 6.28768,1.78661 2.00377,1.77675 2.00377,5.56714 0,3.81013 -2.01363,5.59674 -2.01365,1.78661 -6.27782,1.78661 h -4.0964 z"
         id="path22970"
         style="font-size:10.5833px;line-height:1.25;fill:#d45500;stroke:#d45500;stroke-width:0;stroke-miterlimit:4;stroke-dasharray:none;stroke-opacity:1" />
      <path
         d="m 169.34149,471.23399 v 0.88838 h -8.35068 q 0.11841,1.87545 1.12526,2.86253 1.0167,0.97719 2.82305,0.97719 1.0463,0 2.02351,-0.25661 0.9871,-0.25665 1.95442,-0.76995 v 1.71753 q -0.9772,0.41458 -2.00377,0.63173 -1.02656,0.21716 -2.08273,0.21716 -2.64539,0 -4.19509,-1.53986 -1.53986,-1.53984 -1.53986,-4.16548 0,-2.71446 1.46088,-4.30365 1.47075,-1.59908 3.95819,-1.59908 2.23081,0 3.52388,1.44115 1.30294,1.43125 1.30294,3.89896 z m -1.81622,-0.53301 q -0.0198,-1.4905 -0.83902,-2.37889 -0.80939,-0.88837 -2.15183,-0.88837 -1.52012,0 -2.4381,0.85877 -0.90811,0.85875 -1.04629,2.41835 z"
         id="path22972"
         style="font-size:10.5833px;line-height:1.25;fill:#d45500;stroke:#d45500;stroke-width:0;stroke-miterlimit:4;stroke-dasharray:none;stroke-opacity:1" />
      <path
         d="m 181.5122,470.54304 v 6.67265 h -1.81623 v -6.61344 q 0,-1.56945 -0.61198,-2.34925 -0.61198,-0.77979 -1.83597,-0.77979 -1.47074,0 -2.31965,0.93773 -0.84889,0.93772 -0.84889,2.55653 v 6.24822 h -1.8261 v -11.05531 h 1.8261 v 1.71754 q 0.65149,-0.99696 1.52999,-1.49051 0.88836,-0.49353 2.04323,-0.49353 1.90509,0 2.88228,1.1845 0.97722,1.17462 0.97722,3.46466 z"
         id="path22974"
         style="font-size:10.5833px;line-height:1.25;fill:#d45500;stroke:#d45500;stroke-width:0;stroke-miterlimit:4;stroke-dasharray:none;stroke-opacity:1" />
      <path
         d="m 186.93127,463.02149 v 3.13889 h 3.74104 v 1.41153 h -3.74104 v 6.00146 q 0,1.35229 0.36523,1.73727 0.3751,0.38495 1.51022,0.38495 h 1.86559 v 1.5201 h -1.86559 q -2.10248,0 -2.902,-0.77979 -0.79956,-0.78966 -0.79956,-2.86253 v -6.00146 h -1.33255 v -1.41153 h 1.33255 v -3.13889 z"
         id="path22976"
         style="font-size:10.5833px;line-height:1.25;fill:#d45500;stroke:#d45500;stroke-width:0;stroke-miterlimit:4;stroke-dasharray:none;stroke-opacity:1" />
      <path
         d="m 198.08528,471.65844 q -2.20118,0 -3.05007,0.5034 -0.84889,0.50342 -0.84889,1.71751 0,0.96736 0.63173,1.53985 0.64159,0.56264 1.73725,0.56264 1.51024,0 2.41836,-1.06603 0.91799,-1.07594 0.91799,-2.85267 v -0.4047 z m 3.62259,-0.75019 v 6.30744 h -1.81622 v -1.67803 q -0.62186,1.00681 -1.54973,1.49049 -0.92786,0.4738 -2.27027,0.4738 -1.69777,0 -2.70459,-0.9476 -0.99696,-0.95746 -0.99696,-2.55653 0,-1.86559 1.24372,-2.81319 1.25359,-0.94759 3.73115,-0.94759 h 2.54668 v -0.17765 q 0,-1.25358 -0.82915,-1.93469 -0.81928,-0.69093 -2.30977,-0.69093 -0.9476,0 -1.84583,0.22701 -0.89826,0.22703 -1.72741,0.6811 v -1.67803 q 0.99695,-0.38497 1.93469,-0.57252 0.93772,-0.19743 1.82609,-0.19743 2.39861,0 3.58311,1.24374 1.18449,1.2437 1.18449,3.77065 z"
         id="path22978"
         style="font-size:10.5833px;line-height:1.25;fill:#d45500;stroke:#d45500;stroke-width:0;stroke-miterlimit:4;stroke-dasharray:none;stroke-opacity:1" />
      <path
         d="m 205.44889,461.85674 h 1.81623 v 15.35895 h -1.81623 z"
         id="path22980"
         style="font-size:10.5833px;line-height:1.25;fill:#d45500;stroke:#d45500;stroke-width:0;stroke-miterlimit:4;stroke-dasharray:none;stroke-opacity:1" />
      <path
         d="m 228.60581,463.61372 v 2.10249 q -1.00681,-0.93773 -2.15183,-1.40167 -1.13515,-0.46393 -2.41835,-0.46393 -2.52693,0 -3.86936,1.54974 -1.34242,1.53984 -1.34242,4.46159 0,2.9119 1.34242,4.46161 1.34243,1.53984 3.86936,1.53984 1.2832,0 2.41835,-0.46393 1.14502,-0.46393 2.15183,-1.40164 v 2.08272 q -1.04629,0.7107 -2.22092,1.06606 -1.16476,0.35535 -2.46771,0.35535 -3.3462,0 -5.27102,-2.04327 -1.92479,-2.0531 -1.92479,-5.59674 0,-3.55349 1.92479,-5.59674 1.92482,-2.05312 5.27102,-2.05312 1.32268,0 2.48744,0.35533 1.17462,0.34549 2.20119,1.04631 z"
         id="path22982"
         style="font-size:10.5833px;line-height:1.25;fill:#d45500;stroke:#d45500;stroke-width:0;stroke-miterlimit:4;stroke-dasharray:none;stroke-opacity:1" />
      <path
         d="m 231.60654,461.85674 h 1.81622 v 15.35895 h -1.81622 z"
         id="path22984"
         style="font-size:10.5833px;line-height:1.25;fill:#d45500;stroke:#d45500;stroke-width:0;stroke-miterlimit:4;stroke-dasharray:none;stroke-opacity:1" />
      <path
         d="m 237.22302,461.85674 h 1.81625 v 2.29987 h -1.81625 z"
         id="path22986"
         style="font-size:10.5833px;line-height:1.25;fill:#ffffff;fill-opacity:1;stroke:#ffffff;stroke-width:0;stroke-miterlimit:4;stroke-dasharray:none;stroke-opacity:1" />
      <path
         d="m 237.22302,466.16038 h 1.81625 v 11.05531 h -1.81625 z"
         id="path22988"
         style="font-size:10.5833px;line-height:1.25;fill:#d45500;stroke:#d45500;stroke-width:0;stroke-miterlimit:4;stroke-dasharray:none;stroke-opacity:1" />
      <path
         d="m 252.02923,470.54304 v 6.67265 h -1.81621 v -6.61344 q 0,-1.56945 -0.612,-2.34925 -0.612,-0.77979 -1.83598,-0.77979 -1.47075,0 -2.31962,0.93773 -0.84891,0.93772 -0.84891,2.55653 v 6.24822 h -1.82609 v -11.05531 h 1.82609 v 1.71754 q 0.65147,-0.99696 1.52998,-1.49051 0.88837,-0.49353 2.04326,-0.49353 1.90506,0 2.88228,1.1845 0.9772,1.17462 0.9772,3.46466 z"
         id="path22990"
         style="font-size:10.5833px;line-height:1.25;fill:#d45500;stroke:#d45500;stroke-width:0;stroke-miterlimit:4;stroke-dasharray:none;stroke-opacity:1" />
      <path
         d="m 255.65182,461.85674 h 1.81623 v 2.29987 h -1.81623 z"
         id="path22992"
         style="font-size:10.5833px;line-height:1.25;fill:#ffffff;fill-opacity:1;stroke:#ffffff;stroke-width:0;stroke-miterlimit:4;stroke-dasharray:none;stroke-opacity:1" />
      <path
         d="m 255.65182,466.16038 h 1.81623 v 11.05531 h -1.81623 z"
         id="path22994"
         style="font-size:10.5833px;line-height:1.25;fill:#d45500;stroke:#d45500;stroke-width:0;stroke-miterlimit:4;stroke-dasharray:none;stroke-opacity:1" />
      <path
         d="m 269.22417,466.58485 v 1.69778 q -0.76993,-0.42447 -1.54971,-0.63175 -0.76991,-0.21716 -1.55957,-0.21716 -1.7669,0 -2.74409,1.12527 -0.97722,1.11542 -0.97722,3.13893 0,2.02351 0.97722,3.14879 0.97719,1.11538 2.74409,1.11538 0.78966,0 1.55957,-0.20729 0.77978,-0.21715 1.54971,-0.64158 v 1.67802 q -0.76005,0.35536 -1.57933,0.53304 -0.8094,0.17764 -1.72739,0.17764 -2.4973,0 -3.96805,-1.56946 -1.47075,-1.56947 -1.47075,-4.23458 0,-2.7046 1.48062,-4.25432 1.49048,-1.5497 4.07664,-1.5497 0.839,0 1.63855,0.17764 0.79954,0.16789 1.54971,0.51327 z"
         id="path22996"
         style="font-size:10.5833px;line-height:1.25;fill:#d45500;stroke:#d45500;stroke-width:0;stroke-miterlimit:4;stroke-dasharray:none;stroke-opacity:1" />
      <path
         sodipodi:type="spiral"
         style="fill:none;fill-rule:evenodd;stroke:#ffffff;stroke-width:0.750848;stroke-miterlimit:4;stroke-dasharray:none;stroke-opacity:1"
         id="path22998"
         sodipodi:cx="360"
         sodipodi:cy="390"
         sodipodi:expansion="1"
         sodipodi:revolution="3.03"
         sodipodi:radius="59.711121"
         sodipodi:argument="-20.26486"
         sodipodi:t0="0.96672004"
         transform="matrix(0.54067109,0,0,-1.7791654,51.429699,1076.0196)"
         d="m 343.51595,334.67976 c 11.73164,-4.20119 24.69465,-4.47151 36.62125,-0.89285" />
    </g>
    <path
       style="font-variation-settings:normal;vector-effect:none;fill:#ffffff;fill-opacity:1;stroke:#ffffff;stroke-width:0.00898303;stroke-linecap:butt;stroke-linejoin:miter;stroke-miterlimit:4;stroke-dasharray:none;stroke-dashoffset:0;stroke-opacity:1;-inkscape-stroke:none;stop-color:#000000"
       d="m 176.11661,13.39075 c 0.0178,-0.20995 0.0507,-0.44548 0.19128,-1.34717 0.0855,-0.54771 0.0927,-1.32422 0.0158,-1.74501 -0.0658,-0.36246 -0.22175,-0.78206 -0.38818,-1.04406 -0.12009,-0.18911 -0.41442,-0.49009 -0.58623,-0.59956 -0.0816,-0.0519 -0.0808,-0.0527 0.16068,-0.22317 0.13345,-0.0942 0.33087,-0.22538 0.43887,-0.2918 0.20594,-0.12658 0.45519,-0.35531 0.42202,-0.38719 -0.037,-0.0355 -0.54837,0.16325 -0.82725,0.32175 -1.22176,0.69402 -2.05253,1.88058 -2.68234,3.8311 -0.0914,0.2828 -0.17075,0.51872 -0.17648,0.52427 -0.0197,0.0178 -0.12593,-0.55387 -0.16779,-0.90073 -0.025,-0.20718 -0.0333,-0.56703 -0.0211,-0.90954 0.0239,-0.67352 0.0847,-0.93318 0.33333,-1.42802 0.16839,-0.33514 0.17095,-0.34504 0.17252,-0.68329 10e-4,-0.32757 -0.004,-0.35557 -0.13304,-0.61396 -0.14866,-0.29917 -0.27438,-0.47469 -0.66072,-0.92179 l -0.25965,-0.30051 0.18832,-1.8e-4 c 0.44154,-5.6e-4 1.76711,-0.23496 2.93743,-0.51946 0.52388,-0.12735 1.00408,-0.27814 1.80302,-0.56613 0.59893,-0.21591 1.11133,-0.40009 1.1387,-0.40929 0.0272,-0.0104 0.043,-0.0231 0.0349,-0.031 -0.0332,-0.0318 -1.91228,0.44535 -2.49462,0.63345 -0.6932,0.22394 -1.50324,0.43488 -2.17143,0.56547 -0.41943,0.082 -1.35198,0.22367 -1.47481,0.22406 -0.0606,1.8e-4 -0.32934,-0.35543 -0.52453,-0.69402 -0.4353,-0.75509 -0.58052,-1.55467 -0.36805,-2.02619 0.10089,-0.22386 0.3552,-0.47506 0.5955,-0.58817 0.37548,-0.17668 0.61542,-0.20339 1.53333,-0.17036 0.45164,0.0158 1.28712,0.029 1.85659,0.0283 1.11446,-10e-4 1.31598,-0.0253 1.71699,-0.20156 0.16544,-0.0726 0.3707,-0.27277 0.32498,-0.31668 -0.0104,-0.0104 -0.1366,0.0158 -0.2806,0.0564 -0.57008,0.16226 -0.85255,0.20461 -1.36863,0.2048 -0.27493,1.1e-4 -0.563,-0.0104 -0.64019,-0.022 l -0.14035,-0.0223 0.15812,-0.046 c 0.37472,-0.10894 1.44939,-0.35874 1.77146,-0.4117 0.50409,-0.0829 1.45097,-0.0829 1.75857,6e-5 0.9574,0.2581 1.38002,1.01777 1.25039,2.24765 -0.0725,0.68799 -0.29408,1.17236 -0.953,2.08309 -0.45172,0.62437 -0.66155,1.01678 -0.74281,1.38926 -0.0309,0.14154 -0.0715,0.54314 -0.0903,0.89239 -0.0877,1.62996 -0.29734,2.62219 -0.74453,3.52208 -0.0952,0.19149 -0.23785,0.44 -0.31715,0.55222 -0.1366,0.19346 -0.51464,0.55927 -0.57788,0.55927 -0.0158,0 -0.0215,-0.0965 -0.0117,-0.21452 z"
       id="path23000" />
    <rect
       style="font-variation-settings:normal;vector-effect:none;fill:#ffffff;fill-opacity:1;stroke:#241c1c;stroke-width:0.00898304;stroke-linecap:butt;stroke-linejoin:miter;stroke-miterlimit:4;stroke-dasharray:none;stroke-dashoffset:0;stroke-opacity:1;-inkscape-stroke:none;stop-color:#000000"
       id="rect23002"
       width="3.0882301"
       height="9.6078272"
       x="42.430531"
       y="29.7822" />
    <rect
       style="font-variation-settings:normal;vector-effect:none;fill:#ffffff;fill-opacity:1;stroke:#241c1c;stroke-width:0.00898304;stroke-linecap:butt;stroke-linejoin:miter;stroke-miterlimit:4;stroke-dasharray:none;stroke-dashoffset:0;stroke-opacity:1;-inkscape-stroke:none;stop-color:#000000"
       id="rect23004"
       width="3.0882301"
       height="9.6078272"
       x="47.577579"
       y="30.46851" />
    <rect
       style="font-variation-settings:normal;vector-effect:none;fill:#ffffff;fill-opacity:1;stroke:#241c1c;stroke-width:0.0045269;stroke-linecap:butt;stroke-linejoin:miter;stroke-miterlimit:4;stroke-dasharray:none;stroke-dashoffset:0;stroke-opacity:1;-inkscape-stroke:none;stop-color:#000000"
       id="rect23006"
       width="4.375823"
       height="4.308784"
       x="41.203594"
       y="-30.71674"
       transform="scale(1,-1)" />
    <rect
       style="font-variation-settings:normal;vector-effect:none;fill:#ffffff;fill-opacity:1;stroke:#241c1c;stroke-width:0.0045269;stroke-linecap:butt;stroke-linejoin:miter;stroke-miterlimit:4;stroke-dasharray:none;stroke-dashoffset:0;stroke-opacity:1;-inkscape-stroke:none;stop-color:#000000"
       id="rect23008"
       width="4.375823"
       height="4.308784"
       x="47.53006"
       y="-30.64423"
       transform="scale(1,-1)" />
    <rect
       style="font-variation-settings:normal;vector-effect:none;fill:#ffffff;fill-opacity:1;stroke:#241c1c;stroke-width:0.0045269;stroke-linecap:butt;stroke-linejoin:miter;stroke-miterlimit:4;stroke-dasharray:none;stroke-dashoffset:0;stroke-opacity:1;-inkscape-stroke:none;stop-color:#000000"
       id="rect23010"
       width="4.375823"
       height="4.308784"
       x="47.577579"
       y="-40.076328"
       transform="scale(1,-1)" />
    <rect
       style="font-variation-settings:normal;vector-effect:none;fill:#ffffff;fill-opacity:1;stroke:#241c1c;stroke-width:0.0045269;stroke-linecap:butt;stroke-linejoin:miter;stroke-miterlimit:4;stroke-dasharray:none;stroke-dashoffset:0;stroke-opacity:1;-inkscape-stroke:none;stop-color:#000000"
       id="rect23012"
       width="4.375823"
       height="4.308784"
       x="41.142937"
       y="-40.076328"
       transform="scale(1,-1)" />
    <g
       id="g107542"
       transform="matrix(1.7218501,0,0,1.7218501,-44.842161,-779.88372)">
      <text
         xml:space="preserve"
         transform="matrix(0.23247184,-2.1111444e-4,3.2511069e-4,0.23139941,-132.78363,-140.91256)"
         id="text91738"
         style="font-style:normal;font-weight:normal;font-size:40px;line-height:1.25;font-family:sans-serif;white-space:pre;shape-inside:url(#rect91746);display:inline;fill:#ffffff;fill-opacity:1;stroke:none"><tspan
           x="858.45703"
           y="2768.4629"
           id="tspan1876">BRACES  INVISALIGN  GENERAL DENTISTRY</tspan></text>
      <circle
         style="fill:#ae4600;fill-opacity:1;stroke:none;stroke-width:0.761137;stroke-miterlimit:4;stroke-dasharray:none;stroke-opacity:1"
         id="circle91740"
         cx="107.71407"
         cy="496.05624"
         r="1.9529729" />
      <circle
         style="fill:#ae4600;fill-opacity:1;stroke:none;stroke-width:0.761137;stroke-miterlimit:4;stroke-dasharray:none;stroke-opacity:1"
         id="circle91742"
         cx="166.45967"
         cy="495.91809"
         r="1.9529729" />
    </g>
  </g>
</svg>
