<?xml version="1.0" encoding="UTF-8" standalone="no"?>
<!-- Created with Inkscape (http://www.inkscape.org/) -->

<svg
   width="415.10718mm"
   height="88.735985mm"
   viewBox="0 0 415.10717 88.735984"
   version="1.1"
   id="svg710"
   inkscape:version="1.2 (56b05e47e7, 2022-06-09, custom)"
   sodipodi:docname="logo_hapliv_black.svg"
   xmlns:inkscape="http://www.inkscape.org/namespaces/inkscape"
   xmlns:sodipodi="http://sodipodi.sourceforge.net/DTD/sodipodi-0.dtd"
   xmlns="http://www.w3.org/2000/svg"
   xmlns:svg="http://www.w3.org/2000/svg">
  <sodipodi:namedview
     id="namedview712"
     pagecolor="#ffffff"
     bordercolor="#666666"
     borderopacity="1.0"
     inkscape:showpageshadow="2"
     inkscape:pageopacity="0.0"
     inkscape:pagecheckerboard="0"
     inkscape:deskcolor="#d1d1d1"
     inkscape:document-units="mm"
     showgrid="false"
     inkscape:zoom="0.37816709"
     inkscape:cx="737.76912"
     inkscape:cy="-577.78693"
     inkscape:window-width="1920"
     inkscape:window-height="1026"
     inkscape:window-x="0"
     inkscape:window-y="28"
     inkscape:window-maximized="1"
     inkscape:current-layer="layer1" />
  <defs
     id="defs707">
    <rect
       x="858.45605"
       y="2733.073"
       width="879.42468"
       height="58.937851"
       id="rect107554" />
    <rect
       x="858.45605"
       y="2733.073"
       width="879.42468"
       height="58.937851"
       id="rect91746" />
  </defs>
  <g
     inkscape:label="Layer 1"
     inkscape:groupmode="layer"
     id="layer1"
     transform="translate(158.91238,-18.510574)">
    <path
       id="path22952"
       style="fill:#d45500;fill-opacity:1;stroke:#d45500;stroke-width:0.259379;stroke-miterlimit:4;stroke-dasharray:none;stroke-opacity:1"
       d="m -98.356657,20.769823 c -3.745713,0.0257 -7.426643,0.91581 -11.022823,1.8894 -2.05111,0.67254 -7.12409,3.14342 -9.07482,4.06872 -0.66684,0.58403 2.42682,-0.51389 3.64633,-0.85629 0.62634,-0.18365 0.99943,-0.26742 2.66641,-0.62553 4.29339,-1.23459 8.68131,-2.18127 13.169385,-2.32577 4.253119,-0.22422 9.230082,0.35476 12.276992,3.75439 2.223522,2.50715 3.012933,5.87178 3.048134,9.12786 0.177626,3.85381 -0.417591,7.78171 -2.17549,11.24655 -2.425199,5.69172 -7.550271,9.88374 -9.240234,15.93398 -1.074237,3.77061 -0.783263,7.74217 -1.082577,11.61289 -0.514883,7.3568 -1.865984,14.94704 -5.22612,21.63323 -1.47291,2.74943 -3.21895,5.645937 -6.07865,7.123887 0.0264,-5.271767 1.58613,-10.388107 1.88078,-15.635327 0.0569,-3.26539 0.13658,-6.57714 -0.74895,-9.75432 -0.76773,-3.2529 -2.27377,-6.40258 -4.78183,-8.67217 -0.56162,-0.70823 -1.37544,-1.08328 -2.17336,-1.4584 1.76813,-1.66431 3.86895,-2.90024 5.90189,-4.18958 0.58342,-0.62819 1.16687,-1.25636 1.7503,-1.88455 -1.70263,0.43919 -3.36301,1.01361 -4.86163,1.95093 -6.18972,3.45971 -10.92958,9.09398 -14.06023,15.3935 -2.6523,5.17717 -4.40897,10.74608 -6.0231,16.31657 -1.49947,-5.78921 -1.9852,-11.94854 -1.11191,-17.80685 0.40257,-2.55834 1.41243,-4.95259 2.60444,-7.23332 1.04498,-1.97713 0.87142,-4.37979 0.22231,-6.45005 -1.97558,-5.1381 -6.47962,-8.63419 -9.36486,-13.20112 -2.26594,-3.73802 -4.32997,-7.85385 -4.50833,-12.30159 -0.24655,-2.7697 0.7776,-5.66303 2.95851,-7.44399 2.61545,-2.19848 6.18812,-2.67483 9.49266,-2.51779 4.25243,-0.12178 8.40471,0.53284 12.66998,0.49334 4.90887,-0.0217 10.09795,0.47111 14.68152,-1.65861 0.96298,-0.32262 1.41922,-1.2893 2.08294,-1.98578 -1.33533,0.15101 -2.58684,0.56983 -3.83554,1.03797 -6.1894,1.89879 -12.70204,0.62385 -18.96803,-0.12049 -3.74555,-0.53756 -7.54971,-0.85816 -11.32704,-0.50383 -3.1804,0.39065 -6.4282,1.62069 -8.4419,4.22889 -2.23924,2.73935 -3.37056,6.32047 -3.16274,9.84971 -0.138,5.3833 2.50389,10.32926 5.47646,14.63959 2.2607,3.41291 5.09106,6.48 6.84855,10.20559 0.70914,1.43522 0.65328,3.12227 -0.0753,4.5373 -1.76664,4.27409 -3.2221,8.86166 -2.77277,13.54555 0.29131,4.6694 1.34872,9.25302 2.46986,13.78068 0.59048,1.86682 1.45684,4.009017 3.44318,4.740797 1.66723,0.52046 3.08618,-0.94759 3.58614,-2.404727 1.0268,-2.92615 1.37948,-6.0003 2.27043,-8.96306 1.61506,-5.92566 3.85308,-12.04428 7.4366,-17.00937 1.24126,-1.68738 2.6433,-3.25755 4.19718,-4.66325 1.00635,1.95042 2.81873,3.35444 3.66532,5.40911 1.48526,3.11912 2.06521,6.60215 2.03646,9.97075 0.10914,5.24011 -0.93368,10.41038 -2.30235,15.44298 -0.50365,2.145227 -1.17889,4.562137 -0.17684,6.662877 0.99841,1.83099 3.57642,1.69297 5.11399,0.67632 3.05519,-2.00798 5.436298,-4.91525 7.368918,-7.986167 3.818904,-6.26696 5.466253,-13.56243 6.52127,-20.74493 0.626417,-4.39245 0.650544,-8.85416 1.334426,-13.23728 1.062837,-4.53826 4.223166,-8.13618 6.391665,-12.15864 1.931201,-3.40318 3.381844,-7.17038 3.706951,-11.09089 0.0043,-3.16657 0.268729,-6.40222 -0.662221,-9.47804 -0.793937,-3.31394 -2.479669,-6.58689 -5.435112,-8.45374 -2.597339,-1.64128 -5.716296,-2.40078 -8.770171,-2.45285 -1.151671,-0.006 -2.303324,-0.009 -3.455009,-0.005 z m -15.846433,46.59703 c -0.504,-0.0981 -0.13958,-0.48888 0,0 z"
       sodipodi:nodetypes="scccccccccccccccccccccccccccccccccccccccccccccccccccccccccccsscc" />
    <circle
       id="circle22954"
       style="fill:#bec8b7;stroke:#000000;stroke-width:0.343136"
       cx="-89.367828"
       cy="57.259354"
       r="0.022339016" />
    <path
       style="fill:#999999;stroke-width:0.343136"
       id="path22956"
       d="m -157.13616,41.068123 c -0.38178,1.28503 -0.7893,2.562 -1.18288,3.84335 -0.26966,0.87793 -0.66737,1.92963 -0.58141,2.8832 0.0424,0.47005 0.26146,0.90697 0.39219,1.36047 0.36737,0.43464 0.6601,0.94543 1.1021,1.30392 1.27143,1.03118 3.39521,1.8657 4.88618,2.28487 3.26618,0.91827 6.2229,1.52789 9.6255,1.58863 3.0567,0.0546 6.41296,-0.42097 9.46932,-0.49205 7.88185,-0.92692 15.63609,-2.56973 23.27681,-4.68195 2.78399,-0.76961 13.348693,-5.32221 15.989747,-6.13638 l -6.923447,2.10404 -4.57973,1.33449 c 0,0 -6.45936,2.0881 -9.0638,2.6827 -9.36329,2.13762 -10.32117,2.49305 -17.4983,3.32925 0,0 -6.98668,0.51576 -8.04221,0.47683 -3.39581,-0.12528 -5.23504,-0.14887 -8.25769,-0.91051 -1.34758,-0.33957 -3.1543,-0.98938 -4.30103,-1.90698 -0.38932,-0.31152 -0.66144,-0.74629 -0.99215,-1.11943 -0.13467,-0.39313 -0.35094,-0.76723 -0.40402,-1.17938 -0.11721,-0.91014 0.22802,-1.93799 0.49288,-2.77397 0.41239,-1.30165 0.90467,-2.59152 1.62421,-3.75761 z"
       sodipodi:nodetypes="csscssscsccsscssscsscc" />
    <path
       d="m -73.201433,56.806743 0.663529,-14.96444 0.321712,-11.41566 0.06033,-3.92103 q 0.0201,-0.84376 0.0201,-3.57359 l 2.050897,0.0248 1.910168,-0.0248 -0.583102,14.86517 h 16.326809 l 0.36193,-11.78791 q 0.0201,-0.62041 0.0201,-3.07726 l 2.05091,0.0248 1.91016,-0.0248 q -0.52279,9.82739 -0.76407,17.66945 -0.22117,7.81724 -0.3016,16.20527 l -1.97048,-0.0497 q -0.30159,0 -2.07101,0.0497 0.52278,-7.7428 0.64341,-15.68413 h -16.326799 l -0.2815,10.17483 -0.08041,5.5093 -2.030805,-0.0497 q -0.28149,0 -1.930258,0.0497 z"
       style="font-size:22.3274px;-inkscape-font-specification:'Eras Medium ITC';fill:#000000;fill-opacity:1;stroke:#000000;stroke-width:0.648447;stroke-miterlimit:4;stroke-dasharray:none;stroke-opacity:1"
       id="path22958" />
    <path
       d="m -42.01558,35.662963 c 0.12061,-0.72796 0.24797,-1.80334 0.38203,-3.22617 1.60856,-0.51287 3.00263,-0.86031 4.18223,-1.0423 1.193,-0.19854 2.35252,-0.29779 3.47851,-0.29779 1.20641,0 2.3324,0.14062 3.37795,0.42188 1.05897,0.26471 1.93698,0.70314 2.63402,1.31528 0.69704,0.61215 1.1595,1.31529 1.38738,2.10941 0.22788,0.79413 0.34182,1.64618 0.34182,2.55612 0,1.14156 -0.0738,3.06072 -0.22118,5.75746 -0.13409,2.6802 -0.24129,5.16186 -0.32171,7.44499 -0.0669,2.28313 -0.10051,4.3181 -0.10051,6.1049 -0.72384,-0.0331 -1.31365,-0.0497 -1.76941,-0.0497 -0.42896,0 -1.03887,0.0166 -1.82973,0.0497 l 0.42225,-6.77495 0.30161,-8.01577 c -0.46917,0.4467 -0.82438,0.76104 -1.06567,0.94302 -0.22789,0.182 -0.48928,0.35572 -0.78417,0.52116 -0.29491,0.1489 -0.62333,0.29781 -0.98524,0.4467 -0.34852,0.13236 -1.03887,0.37225 -2.07101,0.71969 -1.01875,0.34742 -1.74261,0.61213 -2.17154,0.79413 -0.92494,0.36397 -1.65549,0.72794 -2.19168,1.09193 -0.53617,0.36397 -0.98524,0.76104 -1.34716,1.1912 -0.36191,0.43015 -0.6166,0.8603 -0.76405,1.29046 -0.17429,0.52942 -0.26141,1.08366 -0.26141,1.66271 0,0.8934 0.21449,1.67099 0.64343,2.33277 0.42894,0.66177 0.96513,1.12502 1.60855,1.38973 0.65683,0.24817 1.441,0.37225 2.35252,0.37225 0.56299,0 1.1528,-0.0497 1.7694,-0.1489 0.61661,-0.0992 1.441,-0.3557 2.47316,-0.7693 -0.18766,0.64523 -1.36265,2.06847 -1.60392,3.40856 -0.97855,0.23163 -0.81562,-0.0584 -1.43223,-0.009 -0.61662,0.0661 -1.19972,0.0992 -1.7493,0.0992 -1.83645,0 -3.27073,-0.2647 -4.30288,-0.79412 -1.03216,-0.52943 -1.80292,-1.33184 -2.3123,-2.40722 -0.50938,-1.09193 -0.76406,-2.27486 -0.76406,-3.54878 0,-0.7445 0.087,-1.43109 0.26139,-2.05978 0.18766,-0.62869 0.43565,-1.19948 0.74395,-1.71235 0.30831,-0.51288 0.74396,-1.02575 1.30696,-1.53863 0.5764,-0.51288 1.17289,-0.93476 1.78952,-1.26565 0.63001,-0.33089 1.36057,-0.65351 2.19164,-0.96785 0.83109,-0.33089 2.16484,-0.76932 4.00129,-1.31529 0.58979,-0.16544 1.09247,-0.33089 1.50803,-0.49633 0.41553,-0.18199 0.78416,-0.3557 1.10587,-0.52114 0.32171,-0.16545 0.6032,-0.3557 0.84447,-0.57078 0.2413,-0.23163 0.46248,-0.50461 0.66355,-0.81895 0.20105,-0.33089 0.34851,-0.66178 0.44235,-0.99267 0.0939,-0.33089 0.14073,-0.66178 0.14073,-0.99267 0,-0.81067 -0.21448,-1.50554 -0.64342,-2.08459 -0.42896,-0.57906 -0.99195,-0.98439 -1.68899,-1.21602 -0.68363,-0.23162 -1.49461,-0.34744 -2.43293,-0.34744 -0.87131,0 -1.76943,0.091 -2.69433,0.27299 -0.91152,0.16544 -1.7024,0.37224 -2.37262,0.62042 -0.65682,0.23162 -1.48121,0.58732 -2.47315,1.06711 z"
       style="font-size:22.3274px;-inkscape-font-specification:'Eras Medium ITC';fill:#000000;fill-opacity:1;stroke:#000000;stroke-width:0.648447;stroke-miterlimit:4;stroke-dasharray:none;stroke-opacity:1"
       id="path22960"
       sodipodi:nodetypes="sccscssscccsccccccccsscsscsscccsscscscccccsccssscsccss" />
    <path
       d="m -21.10845,64.410213 c 0.0747,-4.27624 0.17832,-24.47879 0.40621,-31.82452 0,0 -0.0268,4.66554 0,0 2.19836,-0.57905 3.95436,-0.96785 5.26801,-1.16638 1.32705,-0.21506 2.65413,-0.32261 3.98117,-0.32261 2.09112,0 3.90744,0.4136 5.44898,1.24083 1.54153,0.81067 2.74125,2.25003 3.59916,4.3181 0.85788,2.0515 1.28683,4.37599 1.28683,6.97347 0,1.80334 -0.20106,3.54878 -0.6032,5.23631 -0.40215,1.67099 -1.01878,3.16826 -1.84984,4.49181 -0.81768,1.32356 -1.80963,2.3245 -2.97584,3.00282 -1.16618,0.66178 -2.46643,0.99267 -3.90073,0.99267 -0.8579,0 -1.6823,-0.13235 -2.47317,-0.39707 -0.79086,-0.24818 -1.48121,-0.57906 -2.07101,-0.99267 -0.57641,-0.41361 -1.06567,-0.87686 -1.4678,-1.38973 -0.38873,-0.51288 -0.8646,-1.2822 -1.42758,-2.30795 l -0.0725,8.96852 c -0.0537,1.6048 -0.14663,4.64979 -0.14663,4.64979 l -0.57221,8.18374 c -0.51803,7.28663 -2.05195,6.58046 -2.10192,6.07355 -0.46915,-4.75909 -0.40196,-11.49837 -0.3886,-12.26302 z m 3.86459,-28.87134 -0.14071,1.88606 -0.10051,2.58094 c -0.0537,1.35664 -0.0939,2.46513 -0.12061,3.32543 -0.0267,0.84376 -0.0402,1.43936 -0.0402,1.7868 0,1.22428 0.10051,2.3824 0.30161,3.47433 0.21448,1.09193 0.63002,2.09286 1.24664,3.00282 0.63002,0.89339 1.36726,1.57172 2.21176,2.03495 0.84449,0.46325 1.71578,0.69487 2.61389,0.69487 1.26003,0 2.39944,-0.43016 3.41819,-1.29047 1.03216,-0.8603 1.83643,-2.1425 2.41283,-3.84657 0.57639,-1.70408 0.86459,-3.56532 0.86459,-5.58374 0,-2.03497 -0.30161,-3.78869 -0.9048,-5.26114 -0.60322,-1.47244 -1.4142,-2.53129 -2.43295,-3.17652 -1.01875,-0.66178 -2.17155,-0.99267 -3.45839,-0.99267 -1.83643,0 -3.7935,0.45497 -5.87123,1.36491 z"
       style="font-size:22.3274px;-inkscape-font-specification:'Eras Medium ITC';fill:#000000;fill-opacity:1;stroke:#000000;stroke-width:0.648447;stroke-miterlimit:4;stroke-dasharray:none;stroke-opacity:1"
       id="path22962"
       sodipodi:nodetypes="scccsccscccscccccscsssccccsccsscssscssc" />
    <path
       d="m 2.84298,56.806743 q 0.40212,-7.64354 0.78416,-18.11615 0.26139,-7.61871 0.38203,-15.75857 l 1.86995,0.0248 q 0.5831,0 1.78951,-0.0248 l -0.62331,14.56737 -0.44236,14.74109 -0.0804,4.56626 q -1.18631,-0.0497 -1.7694,-0.0497 -0.2413,0 -1.91017,0.0497 z"
       style="font-size:22.3274px;-inkscape-font-specification:'Eras Medium ITC';fill:#000000;fill-opacity:1;stroke:#000000;stroke-width:0.648447;stroke-miterlimit:4;stroke-dasharray:none;stroke-opacity:1"
       id="path22964" />
    <path
       style="font-size:22.3274px;-inkscape-font-specification:'Eras Medium ITC';fill:#000000;fill-opacity:1;stroke:#000000;stroke-width:0.648447;stroke-miterlimit:4;stroke-dasharray:none;stroke-opacity:1"
       d="m 12.15249,56.806743 0.34179,-6.2538 0.38204,-10.67116 0.16083,-8.21431 1.84984,0.0248 1.80961,-0.0248 q -0.22116,3.8714 -0.40213,8.11505 -0.18093,4.21884 -0.30161,9.23179 -0.10051,5.01296 -0.10051,7.79243 -1.26674,-0.0497 -1.80962,-0.0497 -0.50269,0 -1.93027,0.0497 z"
       id="path22966" />
    <path
       d="m 26.75011,56.806743 -0.68363,-2.50648 q -0.34181,-1.21602 -1.60855,-5.53411 l -5.04685,-17.09868 q 1.22653,0.0248 1.93027,0.0248 0.76408,0 1.80962,-0.0248 l 0.42226,1.73717 q 0.18093,0.74451 0.62331,2.38239 l 4.72512,17.29721 6.394,-18.95992 0.76407,-2.45685 q 1.1863,0.0248 1.89006,0.0248 0.70374,0 1.89005,-0.0248 l -2.61391,6.92385 -5.2479,14.44328 -1.28685,3.77214 q -1.24663,-0.0497 -1.95036,-0.0497 -0.72386,0 -2.01071,0.0497 z"
       style="font-size:22.3274px;-inkscape-font-specification:'Eras Medium ITC';fill:#000000;fill-opacity:1;stroke:#000000;stroke-width:0.648447;stroke-miterlimit:4;stroke-dasharray:none;stroke-opacity:1"
       id="path22968" />
    <path
       d="m 52.202142,36.076739 v 18.237223 h 3.832809 q 4.853823,0 7.10012,-2.199129 2.261989,-2.199177 2.261989,-6.943035 0,-4.71246 -2.261989,-6.895914 -2.246297,-2.199145 -7.10012,-2.199145 z m -3.173054,-2.607557 h 6.518932 q 6.817348,0 10.006093,2.843177 3.188761,2.827486 3.188761,8.859439 0,6.063367 -3.204452,8.906544 -3.204484,2.843177 -9.990402,2.843177 h -6.518932 z"
       id="path22970"
       style="font-size:10.5833px;line-height:1.25;fill:#d45500;stroke:#d45500;stroke-width:0;stroke-miterlimit:4;stroke-dasharray:none;stroke-opacity:1" />
    <path
       d="m 88.723709,47.402357 v 1.413751 H 75.434598 q 0.188435,2.984555 1.790717,4.555375 1.617957,1.555081 4.492547,1.555081 1.665062,0 3.220175,-0.408364 1.570852,-0.408428 3.110226,-1.225284 v 2.733244 q -1.555097,0.659755 -3.188761,1.005323 -1.633647,0.345584 -3.314416,0.345584 -4.209823,0 -6.675985,-2.450503 -2.450504,-2.450472 -2.450504,-6.628865 0,-4.319739 2.324817,-6.848745 2.340523,-2.544745 6.298987,-2.544745 3.550068,0 5.607834,2.293418 2.073474,2.277664 2.073474,6.20473 z m -2.890298,-0.848222 q -0.03151,-2.371953 -1.3352,-3.78572 -1.288047,-1.413734 -3.424381,-1.413734 -2.419089,0 -3.879945,1.36663 -1.445149,1.366598 -1.665046,3.848515 z"
       id="path22972"
       style="font-size:10.5833px;line-height:1.25;fill:#d45500;stroke:#d45500;stroke-width:0;stroke-miterlimit:4;stroke-dasharray:none;stroke-opacity:1" />
    <path
       d="m 108.09194,46.302792 v 10.618727 h -2.89031 V 46.397018 q 0,-2.497592 -0.97389,-3.738551 -0.9739,-1.240943 -2.92173,-1.240943 -2.340509,0 -3.691448,1.492286 -1.350907,1.492269 -1.350907,4.068412 v 9.943297 H 93.357634 V 39.328312 h 2.906021 v 2.73326 q 1.036768,-1.586543 2.434796,-2.371969 1.413719,-0.785394 3.251559,-0.785394 3.03172,0 4.5868,1.88499 1.55513,1.869268 1.55513,5.513593 z"
       id="path22974"
       style="font-size:10.5833px;line-height:1.25;fill:#d45500;stroke:#d45500;stroke-width:0;stroke-miterlimit:4;stroke-dasharray:none;stroke-opacity:1" />
    <path
       d="m 116.71575,34.333143 v 4.995169 h 5.95341 v 2.246281 h -5.95341 v 9.550608 q 0,2.152008 0.58122,2.764658 0.59692,0.612602 2.40333,0.612602 h 2.96886 v 2.419058 h -2.96886 q -3.34585,0 -4.61819,-1.240943 -1.2724,-1.25665 -1.2724,-4.555375 v -9.550608 h -2.1206 v -2.246281 h 2.1206 v -4.995169 z"
       id="path22976"
       style="font-size:10.5833px;line-height:1.25;fill:#d45500;stroke:#d45500;stroke-width:0;stroke-miterlimit:4;stroke-dasharray:none;stroke-opacity:1" />
    <path
       d="m 134.46602,48.077818 q -3.50291,0 -4.85382,0.801101 -1.35091,0.801133 -1.35091,2.733213 0,1.539438 1.00532,2.450487 1.02102,0.895375 2.76463,0.895375 2.40337,0 3.84853,-1.69646 1.46087,-1.71223 1.46087,-4.539684 v -0.644032 z m 5.76492,-1.193837 v 10.037538 h -2.8903 v -2.670385 q -0.98961,1.602218 -2.46621,2.371937 -1.47658,0.753996 -3.61286,0.753996 -2.7018,0 -4.30403,-1.507992 -1.58655,-1.523683 -1.58655,-4.068412 0,-2.968864 1.97924,-4.476857 1.99494,-1.507976 5.93768,-1.507976 h 4.05273 v -0.282709 q 0,-1.994923 -1.31949,-3.078828 -1.30379,-1.099533 -3.67572,-1.099533 -1.508,0 -2.93742,0.361259 -1.42947,0.361292 -2.74897,1.08389 v -2.670385 q 1.58653,-0.612634 3.07883,-0.911097 1.49227,-0.314186 2.906,-0.314186 3.81711,0 5.7021,1.979264 1.88497,1.9792 1.88497,6.000539 z"
       id="path22978"
       style="font-size:10.5833px;line-height:1.25;fill:#d45500;stroke:#d45500;stroke-width:0;stroke-miterlimit:4;stroke-dasharray:none;stroke-opacity:1" />
    <path
       d="m 146.18433,32.479582 h 2.89031 v 24.441937 h -2.89031 z"
       id="path22980"
       style="font-size:10.5833px;line-height:1.25;fill:#d45500;stroke:#d45500;stroke-width:0;stroke-miterlimit:4;stroke-dasharray:none;stroke-opacity:1" />
    <path
       d="m 183.0358,35.275606 v 3.345862 q -1.60221,-1.492285 -3.42438,-2.23059 -1.80645,-0.73829 -3.84851,-0.73829 -4.02131,0 -6.15763,2.466227 -2.1363,2.450471 -2.1363,7.100088 0,4.633941 2.1363,7.10012 2.13632,2.450472 6.15763,2.450472 2.04206,0 3.84851,-0.73829 1.82217,-0.738289 3.42438,-2.230542 v 3.3144 q -1.66504,1.130994 -3.53433,1.696507 -1.85357,0.565497 -3.92706,0.565497 -5.32508,0 -8.3882,-3.25162 -3.06307,-3.267264 -3.06307,-8.906544 0,-5.654955 3.06307,-8.906544 3.06312,-3.267296 8.3882,-3.267296 2.10489,0 3.95846,0.565466 1.86927,0.549806 3.50293,1.665077 z"
       id="path22982"
       style="font-size:10.5833px;line-height:1.25;fill:#d45500;stroke:#d45500;stroke-width:0;stroke-miterlimit:4;stroke-dasharray:none;stroke-opacity:1" />
    <path
       d="m 187.81111,32.479582 h 2.8903 v 24.441937 h -2.8903 z"
       id="path22984"
       style="font-size:10.5833px;line-height:1.25;fill:#d45500;stroke:#d45500;stroke-width:0;stroke-miterlimit:4;stroke-dasharray:none;stroke-opacity:1" />
    <path
       d="m 196.74907,32.479582 h 2.89034 v 3.659969 h -2.89034 z"
       id="path22986"
       style="font-size:10.5833px;line-height:1.25;fill:#000000;fill-opacity:1;stroke:#ffffff;stroke-width:0;stroke-miterlimit:4;stroke-dasharray:none;stroke-opacity:1" />
    <path
       d="m 196.74907,39.328312 h 2.89034 v 17.593207 h -2.89034 z"
       id="path22988"
       style="font-size:10.5833px;line-height:1.25;fill:#d45500;stroke:#d45500;stroke-width:0;stroke-miterlimit:4;stroke-dasharray:none;stroke-opacity:1" />
    <path
       d="M 220.31138,46.302792 V 56.921519 H 217.4211 V 46.397018 q 0,-2.497592 -0.97392,-3.738551 -0.97393,-1.240943 -2.92175,-1.240943 -2.34052,0 -3.6914,1.492286 -1.35093,1.492269 -1.35093,4.068412 v 9.943297 h -2.90601 V 39.328312 h 2.90601 v 2.73326 q 1.03673,-1.586543 2.43478,-2.371969 1.41373,-0.785394 3.2516,-0.785394 3.03168,0 4.58681,1.88499 1.55509,1.869268 1.55509,5.513593 z"
       id="path22990"
       style="font-size:10.5833px;line-height:1.25;fill:#d45500;stroke:#d45500;stroke-width:0;stroke-miterlimit:4;stroke-dasharray:none;stroke-opacity:1" />
    <path
       d="m 226.0763,32.479582 h 2.89032 v 3.659969 h -2.89032 z"
       id="path22992"
       style="font-size:10.5833px;line-height:1.25;fill:#000000;fill-opacity:1;stroke:#ffffff;stroke-width:0;stroke-miterlimit:4;stroke-dasharray:none;stroke-opacity:1" />
    <path
       d="m 226.0763,39.328312 h 2.89032 v 17.593207 h -2.89032 z"
       id="path22994"
       style="font-size:10.5833px;line-height:1.25;fill:#d45500;stroke:#d45500;stroke-width:0;stroke-miterlimit:4;stroke-dasharray:none;stroke-opacity:1" />
    <path
       d="m 247.67508,40.003805 v 2.701815 q -1.22525,-0.675494 -2.46618,-1.005355 -1.22522,-0.345584 -2.48187,-0.345584 -2.81181,0 -4.36689,1.790732 -1.55513,1.775058 -1.55513,4.995233 0,3.220175 1.55513,5.010924 1.55508,1.774994 4.36689,1.774994 1.25665,0 2.48187,-0.329877 1.24093,-0.345569 2.46618,-1.020998 v 2.670368 q -1.20953,0.565513 -2.51332,0.84827 -1.28806,0.282693 -2.74893,0.282693 -3.97416,0 -6.31468,-2.497609 -2.34052,-2.497624 -2.34052,-6.738829 0,-4.304048 2.35623,-6.770242 2.37192,-2.466163 6.48748,-2.466163 1.33517,0 2.60756,0.282693 1.27237,0.267177 2.46618,0.816808 z"
       id="path22996"
       style="font-size:10.5833px;line-height:1.25;fill:#d45500;stroke:#d45500;stroke-width:0;stroke-miterlimit:4;stroke-dasharray:none;stroke-opacity:1" />
    <path
       sodipodi:type="spiral"
       style="fill:none;fill-rule:evenodd;stroke:#000000;stroke-width:0.750848;stroke-miterlimit:4;stroke-dasharray:none;stroke-opacity:1"
       id="path22998"
       sodipodi:cx="360"
       sodipodi:cy="390"
       sodipodi:expansion="1"
       sodipodi:revolution="3.03"
       sodipodi:radius="59.711121"
       sodipodi:argument="-20.26486"
       sodipodi:t0="0.96672004"
       transform="matrix(0.86041354,0,0,-2.8313295,-98.91884,1009.8465)"
       d="m 343.51595,334.67976 c 11.73164,-4.20119 24.69465,-4.47151 36.62125,-0.89285" />
    <path
       style="font-variation-settings:normal;vector-effect:none;fill:#000000;fill-opacity:1;stroke:#000000;stroke-width:0.00898303;stroke-linecap:butt;stroke-linejoin:miter;stroke-miterlimit:4;stroke-dasharray:none;stroke-dashoffset:0;stroke-opacity:1;-inkscape-stroke:none;stop-color:#000000"
       d="m 16.01086,29.608473 c 0.0178,-0.20995 0.0507,-0.44548 0.19128,-1.34717 0.0855,-0.54771 0.0927,-1.32422 0.0158,-1.74501 -0.0658,-0.36246 -0.22175,-0.78206 -0.38818,-1.04406 -0.12009,-0.18911 -0.41442,-0.49009 -0.58623,-0.59956 -0.0816,-0.0519 -0.0808,-0.0527 0.16068,-0.22317 0.13345,-0.0942 0.33087,-0.22538 0.43887,-0.2918 0.20594,-0.12658 0.45519,-0.35531 0.42202,-0.38719 -0.037,-0.0355 -0.54837,0.16325 -0.82725,0.32175 -1.22176,0.69402 -2.05253,1.88058 -2.68234,3.8311 -0.0914,0.2828 -0.17075,0.51872 -0.17648,0.52427 -0.0197,0.0178 -0.12593,-0.55387 -0.16779,-0.90073 -0.025,-0.20718 -0.0333,-0.56703 -0.0211,-0.90954 0.0239,-0.67352 0.0847,-0.93318 0.33333,-1.42802 0.16839,-0.33514 0.17095,-0.34504 0.17252,-0.68329 0.001,-0.32757 -0.004,-0.35557 -0.13304,-0.61396 -0.14866,-0.29917 -0.27438,-0.47469 -0.66072,-0.92179 l -0.25965,-0.30051 0.18832,-1.8e-4 c 0.44154,-5.6e-4 1.76711,-0.23496 2.93743,-0.51946 0.52388,-0.12735 1.00408,-0.27814 1.80302,-0.56613 0.59893,-0.21591 1.11133,-0.40009 1.1387,-0.40929 0.0272,-0.0104 0.043,-0.0231 0.0349,-0.031 -0.0332,-0.0318 -1.91228,0.44535 -2.49462,0.63345 -0.6932,0.22394 -1.50324,0.43488 -2.17143,0.56547 -0.41943,0.082 -1.35198,0.22367 -1.47481,0.22406 -0.0606,1.8e-4 -0.32934,-0.35543 -0.52453,-0.69402 -0.4353,-0.75509 -0.58052,-1.55467 -0.36805,-2.02619 0.10089,-0.22386 0.3552,-0.47506 0.5955,-0.58817 0.37548,-0.17668 0.61542,-0.20339 1.53333,-0.17036 0.45164,0.0158 1.28712,0.029 1.85659,0.0283 1.11446,-10e-4 1.31598,-0.0253 1.71699,-0.20156 0.16544,-0.0726 0.3707,-0.27277 0.32498,-0.31668 -0.0104,-0.0104 -0.1366,0.0158 -0.2806,0.0564 -0.57008,0.16226 -0.85255,0.20461 -1.36863,0.2048 -0.27493,1.1e-4 -0.563,-0.0104 -0.64019,-0.022 l -0.14035,-0.0223 0.15812,-0.046 c 0.37472,-0.10894 1.44939,-0.35874 1.77146,-0.4117 0.50409,-0.0829 1.45097,-0.0829 1.75857,6e-5 0.9574,0.2581 1.38002,1.01777 1.25039,2.24765 -0.0725,0.68799 -0.29408,1.17236 -0.953,2.08309 -0.45172,0.62437 -0.66155,1.01678 -0.74281,1.38926 -0.0309,0.14154 -0.0715,0.54314 -0.0903,0.89239 -0.0877,1.62996 -0.29734,2.62219 -0.74453,3.52208 -0.0952,0.19149 -0.23785,0.44 -0.31715,0.55222 -0.1366,0.19346 -0.51464,0.55927 -0.57788,0.55927 -0.0158,0 -0.0215,-0.0965 -0.0117,-0.21452 z"
       id="path23000" />
    <rect
       style="font-variation-settings:normal;vector-effect:none;fill:#999999;fill-opacity:1;stroke:#241c1c;stroke-width:0.00898304;stroke-linecap:butt;stroke-linejoin:miter;stroke-miterlimit:4;stroke-dasharray:none;stroke-dashoffset:0;stroke-opacity:1;-inkscape-stroke:none;stop-color:#000000"
       id="rect23002"
       width="3.0882301"
       height="9.6078272"
       x="-117.67522"
       y="45.999924" />
    <rect
       style="font-variation-settings:normal;vector-effect:none;fill:#999999;fill-opacity:1;stroke:#241c1c;stroke-width:0.00898304;stroke-linecap:butt;stroke-linejoin:miter;stroke-miterlimit:4;stroke-dasharray:none;stroke-dashoffset:0;stroke-opacity:1;-inkscape-stroke:none;stop-color:#000000"
       id="rect23004"
       width="3.0882301"
       height="9.6078272"
       x="-112.52817"
       y="46.686234" />
    <rect
       style="font-variation-settings:normal;vector-effect:none;fill:#999999;fill-opacity:1;stroke:#241c1c;stroke-width:0.0045269;stroke-linecap:butt;stroke-linejoin:miter;stroke-miterlimit:4;stroke-dasharray:none;stroke-dashoffset:0;stroke-opacity:1;-inkscape-stroke:none;stop-color:#000000"
       id="rect23006"
       width="4.375823"
       height="4.308784"
       x="-118.90215"
       y="-46.934464"
       transform="scale(1,-1)" />
    <rect
       style="font-variation-settings:normal;vector-effect:none;fill:#999999;fill-opacity:1;stroke:#241c1c;stroke-width:0.0045269;stroke-linecap:butt;stroke-linejoin:miter;stroke-miterlimit:4;stroke-dasharray:none;stroke-dashoffset:0;stroke-opacity:1;-inkscape-stroke:none;stop-color:#000000"
       id="rect23008"
       width="4.375823"
       height="4.308784"
       x="-112.57569"
       y="-46.861954"
       transform="scale(1,-1)" />
    <rect
       style="font-variation-settings:normal;vector-effect:none;fill:#999999;fill-opacity:1;stroke:#241c1c;stroke-width:0.0045269;stroke-linecap:butt;stroke-linejoin:miter;stroke-miterlimit:4;stroke-dasharray:none;stroke-dashoffset:0;stroke-opacity:1;-inkscape-stroke:none;stop-color:#000000"
       id="rect23010"
       width="4.375823"
       height="4.308784"
       x="-112.52817"
       y="-56.294052"
       transform="scale(1,-1)" />
    <rect
       style="font-variation-settings:normal;vector-effect:none;fill:#999999;fill-opacity:1;stroke:#241c1c;stroke-width:0.0045269;stroke-linecap:butt;stroke-linejoin:miter;stroke-miterlimit:4;stroke-dasharray:none;stroke-dashoffset:0;stroke-opacity:1;-inkscape-stroke:none;stop-color:#000000"
       id="rect23012"
       width="4.375823"
       height="4.308784"
       x="-118.96281"
       y="-56.294052"
       transform="scale(1,-1)" />
    <g
       id="g107542"
       transform="matrix(1.7218501,0,0,1.7218501,-204.94791,-763.666)">
      <text
         xml:space="preserve"
         transform="matrix(0.23247184,-2.1111444e-4,3.2511069e-4,0.23139941,-132.78363,-140.91256)"
         id="text91738"
         style="font-style:normal;font-weight:normal;font-size:40px;line-height:1.25;font-family:sans-serif;white-space:pre;shape-inside:url(#rect91746);display:inline;fill:#ffffff;fill-opacity:1;stroke:none"><tspan
           x="858.45703"
           y="2768.4629"
           id="tspan5298"><tspan
             style="fill:#000000"
             id="tspan5296">BRACES  INVISALIGN  GENERAL DENTISTRY</tspan></tspan></text>
      <circle
         style="fill:#ae4600;fill-opacity:1;stroke:none;stroke-width:0.761137;stroke-miterlimit:4;stroke-dasharray:none;stroke-opacity:1"
         id="circle91740"
         cx="107.71407"
         cy="496.05624"
         r="1.9529729" />
      <circle
         style="fill:#ae4600;fill-opacity:1;stroke:none;stroke-width:0.761137;stroke-miterlimit:4;stroke-dasharray:none;stroke-opacity:1"
         id="circle91742"
         cx="166.45967"
         cy="495.91809"
         r="1.9529729" />
    </g>
  </g>
</svg>
