<svg xmlns="http://www.w3.org/2000/svg" fill="none" viewBox="0 0 200 200" stroke-width=".75" height="400" width="400"><g id="dental-health-01--health-wellness-dental-health-dent-teeth"><g id="color2"><path id="vector" fill="#fecfc4" d="M112.977 146.162L109.205 119.177L108.771 145.686C106.426 145.586 103.543 145.302 100.65 144.96L122.466 173.3C130.609 171.1 137.539 165.047 139.127 161.025L123.291 140.5L112.977 146.162Z"></path><path id="vector_2" fill="#fecfc4" d="M174.734 127.946L159.314 120.706L139.756 131.45L165.433 145.715C173.633 142.1 174.868 130.67 174.734 127.946Z"></path><path id="vector_3" fill="#fecfc4" d="M49.136 155.779C48.3524 155.779 47.6009 156.091 47.0468 156.645C46.4927 157.199 46.1813 157.95 46.181 158.734V180.69C46.181 181.474 46.4924 182.225 47.0465 182.78C47.6007 183.334 48.3523 183.645 49.136 183.645C49.9197 183.645 50.6714 183.334 51.2255 182.78C51.7797 182.225 52.091 181.474 52.091 180.69V158.734C52.0908 157.95 51.7794 157.199 51.2252 156.645C50.6711 156.091 49.9197 155.779 49.136 155.779V155.779Z"></path></g><g id="color1"><path id="vector_4" fill="#6153bd" d="M74.1 66.659C74.341 66.651 74.584 66.648 74.83 66.648C75.076 66.648 75.32 66.648 75.561 66.659C78.4602 63.7648 82.0214 61.6212 85.936 60.414C82.797 58.424 78.186 57.689 74.83 57.689C71.474 57.689 66.864 58.424 63.724 60.414C67.6389 61.6213 71.2004 63.7648 74.1 66.659V66.659Z"></path><path id="vector_5" fill="#6153bd" d="M102.075 39.2679L101.029 45.9219L108.087 48.7319L102.075 39.2679Z"></path><path id="vector_6" fill="#6153bd" d="M115.629 39.321L108.087 48.732L115.85 46.192L115.629 39.321Z"></path><path id="vector_7" fill="#6153bd" d="M105.712 32.149C105.712 32.149 105.792 34.059 105.756 35.531C106.898 34.073 107.847 30.375 107.847 30.375C107.208 31.0483 106.491 31.6437 105.712 32.149V32.149Z"></path><path id="vector_8" fill="#6153bd" d="M105.132 20.546C107.521 19.187 109.07 20.499 109.539 21.718C109.844 23.179 109.954 24.6741 109.866 26.164C109.866 26.164 111.231 25.141 112.166 25.69C112.766 26.039 112.466 28.063 109.891 29.026C109.914 29.478 109.95 29.911 109.996 30.326C110.884 30.2369 111.733 29.9146 112.456 29.3918C113.18 28.869 113.752 28.1643 114.116 27.349C115.636 23.927 114.945 18.433 110.133 17.723C105.78 17.081 103.857 19.434 103.089 22.335C103.645 21.6097 104.34 21.0016 105.132 20.546V20.546Z"></path><path id="vector_9" fill="#6153bd" d="M127.636 18.075C124.524 13.088 119.217 14.552 116.836 17.023C115.781 18.1054 114.88 19.3279 114.159 20.656C114.781 22.0595 114.983 23.6131 114.741 25.129C115.682 26.7524 116.96 28.1556 118.488 29.244C121.373 31.129 124.105 30.898 126.028 29.513C127.609 28.1071 128.639 26.1848 128.934 24.0895C129.229 21.9942 128.769 19.8624 127.636 18.075V18.075Z"></path><path id="vector_10" fill="#6153bd" d="M51.655 107.789C53.386 112.339 56.813 117.281 63.644 122.136L67.864 118.56C66.1982 115.618 63.8626 113.109 61.0465 111.238C58.2303 109.366 55.0129 108.185 51.655 107.789V107.789Z"></path><path id="vector_11" fill="#6153bd" d="M143.568 169.948L137.805 163.32C134.733 167.131 130.755 170.111 126.234 171.988C126.878 172.855 127.431 173.786 127.883 174.767C129.23 177.706 129.572 179.267 128.883 182.067C128.194 184.867 127.124 192.458 128.223 193.915C129.322 195.372 130.904 194.252 131.989 193.365C133.755 191.927 145.3 176.817 143.568 169.948Z"></path><path id="vector_12" fill="#6153bd" d="M181.93 132.74L174.63 130.263C174.253 133.836 172.817 139.883 168.695 143.595C169.283 143.924 169.935 144.29 170.58 144.654C172.636 145.934 174.147 147.928 174.822 150.254C175.26 152.178 176.878 157.339 178.802 160.054C180.726 162.769 182.17 161.104 183.263 157.954C184.356 154.804 185.992 138.359 181.93 132.74Z"></path><path id="vector_13" fill="#6153bd" d="M120.313 93.774C119.258 94.368 117.253 95.509 114.988 96.868C116.788 99.659 119.888 103.851 121.948 102.579C123.206 101.8 122.791 98.337 120.313 93.774Z"></path></g><g id="line"><path id="vector_14" stroke="#120071" stroke-linecap="round" stroke-linejoin="round" d="M87.222 121.247L86.929 142.987C86.929 142.987 100.885 145.34 108.771 145.687L109.205 119.178L112.977 146.163L159.867 120.403L141.175 87.7999C142.185 86.9719 143.08 86.2189 143.8 85.5829C147.558 82.2559 148.9 76.9929 147.03 71.4829C143.685 61.6359 133.989 49.9509 130.58 46.6109C127.171 43.2709 125.107 41.7299 115.629 39.3279L108.087 48.7389L102.075 39.2749C99.302 39.7519 89.991 40.7669 72.975 46.7379C55.959 52.7089 43.175 61.4589 37.306 70.7199C37.306 70.7199 40.844 70.5909 45.246 76.5439"></path><path id="vector_15" stroke="#120071" stroke-linecap="round" stroke-linejoin="round" d="M90.7921 73.371C88.7134 71.2429 86.2302 69.5518 83.4885 68.3972C80.7468 67.2426 77.802 66.6478 74.8271 66.6478C71.8522 66.6478 68.9073 67.2426 66.1656 68.3972C63.4239 69.5518 60.9407 71.2429 58.8621 73.371"></path><path id="vector_16" stroke="#120071" stroke-linecap="round" stroke-linejoin="round" d="M143.8 85.579C139.144 89.7 126.939 98.879 121.949 102.579"></path><path id="vector_17" stroke="#120071" stroke-linecap="round" stroke-linejoin="round" d="M112.445 86.2289C116.185 83.6289 121.545 79.7289 128.872 74.0499L122.216 61.8159"></path><path id="vector_18" stroke="#120071" stroke-linecap="round" stroke-linejoin="round" d="M101.911 89.173C103.123 82.991 104.322 77.002 104.578 75.682C105.059 73.2 104.734 61.034 90.763 59.828C85.787 59.399 79.209 62.889 75.563 66.659C75.322 66.651 75.078 66.648 74.832 66.648C74.586 66.648 74.343 66.648 74.102 66.659C70.451 62.889 63.873 59.399 58.902 59.828C44.92 61.034 44.6 73.2 45.077 75.682C45.319 76.93 46.403 82.347 47.544 88.157"></path><path id="vector_19" stroke="#120071" stroke-linecap="round" stroke-linejoin="round" d="M48.384 92.4519C49.218 96.7439 49.977 100.741 50.338 102.892C51.305 108.647 54.27 115.473 63.644 122.136L74.827 112.657L86.011 122.136C93.052 117.136 96.477 112.036 98.156 107.368"></path><path id="vector_20" stroke="#120071" stroke-linecap="round" stroke-linejoin="round" d="M105.712 32.1479C105.795 33.7349 105.775 35.3257 105.65 36.9099C105.434 37.9889 104.85 38.7899 102.075 39.2669L108.087 48.7319L115.629 39.3209C113.395 38.6899 110.247 35.9209 109.89 29.0259C112.462 28.0629 112.761 26.0389 112.165 25.6889C111.231 25.1409 109.865 26.1639 109.865 26.1639C109.953 24.674 109.843 23.1789 109.538 21.7179C109.069 20.4989 107.52 19.1869 105.131 20.5459C103.1 21.7019 101.998 23.7359 101.131 26.1869C100.018 29.3389 101.24 34.2999 105.712 32.1479Z"></path><path id="vector_21" stroke="#120071" stroke-linecap="round" stroke-linejoin="round" d="M102.075 39.2679L101.029 45.9219L108.087 48.7319L102.075 39.2679Z"></path><path id="vector_22" stroke="#120071" stroke-linecap="round" stroke-linejoin="round" d="M115.629 39.3209L108.087 48.7319L115.85 46.1919L115.629 39.3209Z"></path><path id="vector_23" stroke="#120071" stroke-linecap="round" stroke-linejoin="round" d="M108.087 48.7319V89.1729"></path><path id="vector_24" stroke="#120071" stroke-linecap="round" stroke-linejoin="round" d="M134.599 93.0029L143.629 108.657L125.704 118.99L113.473 97.7869"></path><path id="vector_25" stroke="#120071" stroke-linecap="round" stroke-linejoin="round" d="M105.712 32.149C105.712 32.149 105.792 34.059 105.756 35.531C106.898 34.073 107.847 30.375 107.847 30.375C107.208 31.0483 106.491 31.6437 105.712 32.149V32.149Z"></path><path id="vector_26" stroke="#120071" stroke-linecap="round" stroke-linejoin="round" d="M105.132 20.5459C107.521 19.1869 109.07 20.4989 109.539 21.7179C109.844 23.1789 109.954 24.674 109.866 26.1639C109.866 26.1639 111.231 25.1409 112.166 25.6899C112.766 26.0389 112.466 28.0629 109.891 29.0259C109.914 29.4779 109.95 29.9109 109.996 30.3259C110.884 30.2367 111.733 29.9144 112.456 29.3916C113.18 28.8689 113.752 28.1641 114.116 27.3489C115.636 23.9269 114.945 18.4329 110.133 17.7229C105.78 17.0809 103.857 19.4339 103.089 22.3349C103.645 21.6095 104.34 21.0015 105.132 20.5459V20.5459Z"></path><path id="vector_27" stroke="#120071" stroke-linecap="round" stroke-linejoin="round" d="M127.636 18.075C124.524 13.088 119.217 14.552 116.836 17.023C115.781 18.1054 114.88 19.3279 114.159 20.656C114.781 22.0595 114.983 23.6131 114.741 25.129C115.682 26.7524 116.96 28.1556 118.488 29.244C121.373 31.129 124.105 30.898 126.028 29.513C127.609 28.1071 128.639 26.1848 128.934 24.0895C129.229 21.9942 128.769 19.8624 127.636 18.075V18.075Z"></path><path id="vector_28" stroke="#120071" stroke-linecap="round" stroke-linejoin="round" d="M49.1361 150.672C61.0185 150.672 70.6511 141.039 70.6511 129.157C70.6511 117.275 61.0185 107.642 49.1361 107.642C37.2537 107.642 27.6211 117.275 27.6211 129.157C27.6211 141.039 37.2537 150.672 49.1361 150.672Z"></path><path id="vector_29" stroke="#120071" stroke-linecap="round" stroke-linejoin="round" d="M47.5051 145.271C45.0637 145.024 42.7104 144.226 40.6229 142.936C38.5354 141.646 36.7683 139.899 35.4551 137.826"></path><path id="vector_30" stroke="#120071" stroke-linecap="round" stroke-linejoin="round" d="M49.136 150.673V155.779"></path><path id="vector_31" stroke="#120071" stroke-linecap="round" stroke-linejoin="round" d="M49.136 155.779C48.3524 155.779 47.6009 156.091 47.0468 156.645C46.4927 157.199 46.1813 157.95 46.181 158.734V180.69C46.181 181.474 46.4924 182.225 47.0465 182.779C47.6007 183.334 48.3523 183.645 49.136 183.645C49.9197 183.645 50.6714 183.334 51.2255 182.779C51.7797 182.225 52.091 181.474 52.091 180.69V158.734C52.0908 157.95 51.7794 157.199 51.2252 156.645C50.6711 156.091 49.9197 155.779 49.136 155.779V155.779Z"></path><path id="vector_32" stroke="#120071" stroke-linecap="round" stroke-linejoin="round" d="M112.977 146.162L109.205 119.177L108.771 145.686C106.426 145.586 103.543 145.302 100.65 144.96L122.466 173.3C130.609 171.1 137.539 165.047 139.127 161.025L123.291 140.5L112.977 146.162Z"></path><path id="vector_33" stroke="#120071" stroke-linecap="round" stroke-linejoin="round" d="M174.734 127.946L159.314 120.706L139.756 131.45L165.433 145.715C173.633 142.1 174.868 130.67 174.734 127.946Z"></path><path id="vector_34" stroke="#120071" stroke-linecap="round" stroke-linejoin="round" d="M143.568 169.948L137.805 163.32C134.733 167.131 130.755 170.111 126.234 171.988C126.878 172.855 127.431 173.786 127.883 174.767C129.23 177.706 129.572 179.267 128.883 182.067C128.194 184.867 127.124 192.458 128.223 193.915C129.322 195.372 130.904 194.252 131.989 193.365C133.755 191.927 145.3 176.817 143.568 169.948Z"></path><path id="vector_35" stroke="#120071" stroke-linecap="round" stroke-linejoin="round" d="M181.93 132.74L174.63 130.263C174.253 133.836 172.817 139.883 168.695 143.595C169.283 143.924 169.935 144.29 170.58 144.654C172.636 145.934 174.147 147.928 174.822 150.254C175.26 152.178 176.878 157.339 178.802 160.054C180.726 162.769 182.17 161.104 183.263 157.954C184.356 154.804 185.992 138.359 181.93 132.74Z"></path><path id="vector_36" stroke="#120071" stroke-linecap="round" stroke-linejoin="round" d="M52.0081 92.3459C50.8081 91.2949 46.4691 87.1269 45.6811 86.3759C45.5313 86.2379 45.4196 86.0637 45.3564 85.8701C45.2933 85.6765 45.2808 85.4699 45.3204 85.2701C45.3599 85.0703 45.4501 84.884 45.5822 84.729C45.7143 84.574 45.884 84.4556 46.0751 84.3849L46.7571 84.1639C46.1041 80.8639 45.5411 78.0349 45.2461 76.5439C40.8461 70.5909 37.3061 70.7199 37.3061 70.7199C34.2691 75.6069 34.6791 80.14 36.2511 83.202C37.8231 86.264 40.8001 88 42.1271 88.788C43.4541 89.576 50.1861 93.5879 51.3691 94.0539C52.5521 94.5199 53.2091 93.3999 52.0081 92.3459Z"></path><path id="vector_37" stroke="#120071" stroke-linecap="round" stroke-linejoin="round" d="M49.1861 96.6179C48.1471 94.8669 46.9591 92.5689 46.2861 91.2409C44.4671 90.1809 42.7311 89.1479 42.1261 88.7879C40.178 87.7335 38.4646 86.294 37.0901 84.5569C37.5763 85.9833 38.2246 87.3492 39.0221 88.6279C41.7904 92.7669 44.9564 96.6256 48.4751 100.149C48.9098 100.55 49.434 100.841 50.0041 100.999C49.7801 99.7579 49.5001 98.2589 49.1861 96.6179Z"></path><path id="vector_38" stroke="#120071" stroke-linecap="round" stroke-linejoin="round" d="M48.476 100.149C45.064 96.7301 41.9798 92.9992 39.264 89.0049C41.3276 93.4003 43.9961 97.4852 47.192 101.141C47.3177 101.325 47.4966 101.467 47.7047 101.547C47.9129 101.628 48.1406 101.643 48.3576 101.591C48.5746 101.539 48.7707 101.422 48.9197 101.256C49.0687 101.09 49.1637 100.882 49.192 100.661C48.9403 100.509 48.7009 100.338 48.476 100.149V100.149Z"></path><path id="vector_39" stroke="#120071" stroke-linecap="round" stroke-linejoin="round" d="M31.136 5.27295V22.533"></path><path id="vector_40" stroke="#120071" stroke-linecap="round" stroke-linejoin="round" d="M39.7651 13.903H22.5061"></path><path id="vector_41" stroke="#120071" stroke-linecap="round" stroke-linejoin="round" d="M61.525 15.62V27.905"></path><path id="vector_42" stroke="#120071" stroke-linecap="round" stroke-linejoin="round" d="M67.6671 21.762H55.3831"></path><path id="vector_43" stroke="#120071" stroke-linecap="round" stroke-linejoin="round" d="M53.243 38.8829V45.9589"></path><path id="vector_44" stroke="#120071" stroke-linecap="round" stroke-linejoin="round" d="M56.7801 42.4209H49.7051"></path><path id="vector_45" stroke="#120071" stroke-linecap="round" stroke-linejoin="round" d="M70.312 30.1029V38.5389"></path><path id="vector_46" stroke="#120071" stroke-linecap="round" stroke-linejoin="round" d="M74.53 34.3209H66.094"></path><path id="vector_47" stroke="#120071" stroke-linecap="round" stroke-linejoin="round" d="M27.842 96.6599V108.89"></path><path id="vector_48" stroke="#120071" stroke-linecap="round" stroke-linejoin="round" d="M33.9571 102.775H21.7271"></path><path id="vector_49" stroke="#120071" stroke-linecap="round" stroke-linejoin="round" d="M18.589 115.037V121.177"></path><path id="vector_50" stroke="#120071" stroke-linecap="round" stroke-linejoin="round" d="M21.659 118.107H15.519"></path><path id="vector_51" stroke="#120071" stroke-linecap="round" stroke-linejoin="round" d="M62.0071 158.888L65.9071 162.788"></path><path id="vector_52" stroke="#120071" stroke-linecap="round" stroke-linejoin="round" d="M62.0071 162.788L65.9071 158.888"></path><path id="vector_53" stroke="#120071" stroke-linecap="round" stroke-linejoin="round" d="M72.41 168.894L79.276 175.759"></path><path id="vector_54" stroke="#120071" stroke-linecap="round" stroke-linejoin="round" d="M72.41 175.759L79.276 168.894"></path><path id="vector_55" stroke="#120071" stroke-linecap="round" stroke-linejoin="round" d="M120.313 93.7739C119.258 94.3679 117.253 95.5089 114.988 96.8679C116.788 99.6589 119.888 103.851 121.948 102.579C123.206 101.8 122.791 98.3369 120.313 93.7739Z"></path><path id="vector_56" stroke="#120071" stroke-linecap="round" stroke-linejoin="round" d="M119.418 92.225C116.355 87.235 113.647 85.819 112.444 86.23C107.444 89.712 105.344 90.878 105.344 90.878C102.202 88.904 99.1151 88.129 94.6811 87.663C94.4265 87.6361 94.1707 87.7006 93.9593 87.845C93.7479 87.9893 93.5947 88.2041 93.5271 88.451C93.4594 88.6972 93.476 88.959 93.5745 89.1946C93.6729 89.4302 93.8474 89.6261 94.0701 89.751C95.2501 90.41 97.4301 91.637 98.0601 92C98.3018 92.186 98.4924 92.4303 98.6138 92.7101C98.7353 92.9899 98.7836 93.296 98.7543 93.5996C98.725 93.9032 98.6191 94.1944 98.4464 94.4458C98.2737 94.6973 98.0399 94.9007 97.7671 95.037C94.6548 96.7098 91.4496 98.2035 88.1671 99.511C87.9754 99.5903 87.819 99.7365 87.727 99.9225C87.635 100.108 87.6137 100.322 87.6671 100.522C87.7279 100.749 87.8701 100.946 88.0667 101.075C88.2632 101.204 88.5004 101.257 88.7331 101.222C91.827 100.64 94.8738 99.8311 97.8491 98.802L90.0001 104.8C89.8336 104.927 89.7207 105.111 89.6836 105.317C89.6465 105.523 89.6879 105.735 89.7997 105.912C89.9114 106.089 90.0854 106.217 90.2873 106.272C90.4892 106.327 90.7042 106.304 90.8901 106.208L100.05 101.489L93.5501 108.674C93.38 108.855 93.2858 109.094 93.2869 109.343C93.288 109.591 93.3843 109.829 93.5559 110.009C93.7275 110.188 93.9615 110.295 94.2095 110.307C94.4575 110.319 94.7007 110.236 94.8891 110.074L102.352 103.884C102.352 103.884 98.2761 109.463 97.5691 110.907C96.8621 112.351 98.0351 112.697 98.9081 111.78C99.7811 110.863 102.976 107.28 105.052 105.004C107.165 102.34 109.732 100.072 112.636 98.304C115.791 96.342 118.9 94.569 120.311 93.775C120.037 93.2703 119.739 92.7537 119.418 92.225Z"></path></g></g></svg>